<svg xmlns:xlink="http://www.w3.org/1999/xlink" width="69.838ex" height="2.843ex" style="font-size: 15px; vertical-align: -0.838ex;" viewBox="0 -863.1 30069.1 1223.9" role="img" focusable="false" xmlns="http://www.w3.org/2000/svg">
<defs>
<path stroke-width="1" id="E1-MJMATHI-50" d="M287 628Q287 635 230 637Q206 637 199 638T192 648Q192 649 194 659Q200 679 203 681T397 683Q587 682 600 680Q664 669 707 631T751 530Q751 453 685 389Q616 321 507 303Q500 302 402 301H307L277 182Q247 66 247 59Q247 55 248 54T255 50T272 48T305 46H336Q342 37 342 35Q342 19 335 5Q330 0 319 0Q316 0 282 1T182 2Q120 2 87 2T51 1Q33 1 33 11Q33 13 36 25Q40 41 44 43T67 46Q94 46 127 49Q141 52 146 61Q149 65 218 339T287 628ZM645 554Q645 567 643 575T634 597T609 619T560 635Q553 636 480 637Q463 637 445 637T416 636T404 636Q391 635 386 627Q384 621 367 550T332 412T314 344Q314 342 395 342H407H430Q542 342 590 392Q617 419 631 471T645 554Z"></path>
<path stroke-width="1" id="E1-MJMAIN-28" d="M94 250Q94 319 104 381T127 488T164 576T202 643T244 695T277 729T302 750H315H319Q333 750 333 741Q333 738 316 720T275 667T226 581T184 443T167 250T184 58T225 -81T274 -167T316 -220T333 -241Q333 -250 318 -250H315H302L274 -226Q180 -141 137 -14T94 250Z"></path>
<path stroke-width="1" id="E1-MJMATHI-4E" d="M234 637Q231 637 226 637Q201 637 196 638T191 649Q191 676 202 682Q204 683 299 683Q376 683 387 683T401 677Q612 181 616 168L670 381Q723 592 723 606Q723 633 659 637Q635 637 635 648Q635 650 637 660Q641 676 643 679T653 683Q656 683 684 682T767 680Q817 680 843 681T873 682Q888 682 888 672Q888 650 880 642Q878 637 858 637Q787 633 769 597L620 7Q618 0 599 0Q585 0 582 2Q579 5 453 305L326 604L261 344Q196 88 196 79Q201 46 268 46H278Q284 41 284 38T282 19Q278 6 272 0H259Q228 2 151 2Q123 2 100 2T63 2T46 1Q31 1 31 10Q31 14 34 26T39 40Q41 46 62 46Q130 49 150 85Q154 91 221 362L289 634Q287 635 234 637Z"></path>
<path stroke-width="1" id="E1-MJMATHI-74" d="M26 385Q19 392 19 395Q19 399 22 411T27 425Q29 430 36 430T87 431H140L159 511Q162 522 166 540T173 566T179 586T187 603T197 615T211 624T229 626Q247 625 254 615T261 596Q261 589 252 549T232 470L222 433Q222 431 272 431H323Q330 424 330 420Q330 398 317 385H210L174 240Q135 80 135 68Q135 26 162 26Q197 26 230 60T283 144Q285 150 288 151T303 153H307Q322 153 322 145Q322 142 319 133Q314 117 301 95T267 48T216 6T155 -11Q125 -11 98 4T59 56Q57 64 57 83V101L92 241Q127 382 128 383Q128 385 77 385H26Z"></path>
<path stroke-width="1" id="E1-MJMAIN-2B" d="M56 237T56 250T70 270H369V420L370 570Q380 583 389 583Q402 583 409 568V270H707Q722 262 722 250T707 230H409V-68Q401 -82 391 -82H389H387Q375 -82 369 -68V230H70Q56 237 56 250Z"></path>
<path stroke-width="1" id="E1-MJMATHI-68" d="M137 683Q138 683 209 688T282 694Q294 694 294 685Q294 674 258 534Q220 386 220 383Q220 381 227 388Q288 442 357 442Q411 442 444 415T478 336Q478 285 440 178T402 50Q403 36 407 31T422 26Q450 26 474 56T513 138Q516 149 519 151T535 153Q555 153 555 145Q555 144 551 130Q535 71 500 33Q466 -10 419 -10H414Q367 -10 346 17T325 74Q325 90 361 192T398 345Q398 404 354 404H349Q266 404 205 306L198 293L164 158Q132 28 127 16Q114 -11 83 -11Q69 -11 59 -2T48 16Q48 30 121 320L195 616Q195 629 188 632T149 637H128Q122 643 122 645T124 664Q129 683 137 683Z"></path>
<path stroke-width="1" id="E1-MJMAIN-29" d="M60 749L64 750Q69 750 74 750H86L114 726Q208 641 251 514T294 250Q294 182 284 119T261 12T224 -76T186 -143T145 -194T113 -227T90 -246Q87 -249 86 -250H74Q66 -250 63 -250T58 -247T55 -238Q56 -237 66 -225Q221 -64 221 250T66 725Q56 737 55 738Q55 746 60 749Z"></path>
<path stroke-width="1" id="E1-MJMAIN-2212" d="M84 237T84 250T98 270H679Q694 262 694 250T679 230H98Q84 237 84 250Z"></path>
<path stroke-width="1" id="E1-MJMAIN-3D" d="M56 347Q56 360 70 367H707Q722 359 722 347Q722 336 708 328L390 327H72Q56 332 56 347ZM56 153Q56 168 72 173H708Q722 163 722 153Q722 140 707 133H70Q56 140 56 153Z"></path>
<path stroke-width="1" id="E1-MJMAIN-31" d="M213 578L200 573Q186 568 160 563T102 556H83V602H102Q149 604 189 617T245 641T273 663Q275 666 285 666Q294 666 302 660V361L303 61Q310 54 315 52T339 48T401 46H427V0H416Q395 3 257 3Q121 3 100 0H88V46H114Q136 46 152 46T177 47T193 50T201 52T207 57T213 61V578Z"></path>
<path stroke-width="1" id="E1-MJMATHI-3BB" d="M166 673Q166 685 183 694H202Q292 691 316 644Q322 629 373 486T474 207T524 67Q531 47 537 34T546 15T551 6T555 2T556 -2T550 -11H482Q457 3 450 18T399 152L354 277L340 262Q327 246 293 207T236 141Q211 112 174 69Q123 9 111 -1T83 -12Q47 -12 47 20Q47 37 61 52T199 187Q229 216 266 252T321 306L338 322Q338 323 288 462T234 612Q214 657 183 657Q166 657 166 673Z"></path>
<path stroke-width="1" id="E1-MJMATHI-6F" d="M201 -11Q126 -11 80 38T34 156Q34 221 64 279T146 380Q222 441 301 441Q333 441 341 440Q354 437 367 433T402 417T438 387T464 338T476 268Q476 161 390 75T201 -11ZM121 120Q121 70 147 48T206 26Q250 26 289 58T351 142Q360 163 374 216T388 308Q388 352 370 375Q346 405 306 405Q243 405 195 347Q158 303 140 230T121 120Z"></path>
<path stroke-width="1" id="E1-MJMAIN-2C" d="M78 35T78 60T94 103T137 121Q165 121 187 96T210 8Q210 -27 201 -60T180 -117T154 -158T130 -185T117 -194Q113 -194 104 -185T95 -172Q95 -168 106 -156T131 -126T157 -76T173 -3V9L172 8Q170 7 167 6T161 3T152 1T140 0Q113 0 96 17Z"></path>
<path stroke-width="1" id="E1-MJMAIN-2265" d="M83 616Q83 624 89 630T99 636Q107 636 253 568T543 431T687 361Q694 356 694 346T687 331Q685 329 395 192L107 56H101Q83 58 83 76Q83 77 83 79Q82 86 98 95Q117 105 248 167Q326 204 378 228L626 346L360 472Q291 505 200 548Q112 589 98 597T83 616ZM84 -118Q84 -108 99 -98H678Q694 -104 694 -118Q694 -130 679 -138H98Q84 -131 84 -118Z"></path>
<path stroke-width="1" id="E1-MJMAIN-32" d="M109 429Q82 429 66 447T50 491Q50 562 103 614T235 666Q326 666 387 610T449 465Q449 422 429 383T381 315T301 241Q265 210 201 149L142 93L218 92Q375 92 385 97Q392 99 409 186V189H449V186Q448 183 436 95T421 3V0H50V19V31Q50 38 56 46T86 81Q115 113 136 137Q145 147 170 174T204 211T233 244T261 278T284 308T305 340T320 369T333 401T340 431T343 464Q343 527 309 573T212 619Q179 619 154 602T119 569T109 550Q109 549 114 549Q132 549 151 535T170 489Q170 464 154 447T109 429Z"></path>
</defs>
<g stroke="currentColor" fill="currentColor" stroke-width="0" transform="matrix(1 0 0 -1 0 0)">
 <use xlink:href="#E1-MJMATHI-50" x="0" y="0"></use>
 <use xlink:href="#E1-MJMAIN-28" x="751" y="0"></use>
 <use xlink:href="#E1-MJMATHI-4E" x="1141" y="0"></use>
 <use xlink:href="#E1-MJMAIN-28" x="2029" y="0"></use>
 <use xlink:href="#E1-MJMATHI-74" x="2419" y="0"></use>
 <use xlink:href="#E1-MJMAIN-2B" x="3002" y="0"></use>
 <use xlink:href="#E1-MJMATHI-68" x="4003" y="0"></use>
 <use xlink:href="#E1-MJMAIN-29" x="4579" y="0"></use>
 <use xlink:href="#E1-MJMAIN-2212" x="5191" y="0"></use>
 <use xlink:href="#E1-MJMATHI-4E" x="6192" y="0"></use>
 <use xlink:href="#E1-MJMAIN-28" x="7080" y="0"></use>
 <use xlink:href="#E1-MJMATHI-74" x="7470" y="0"></use>
 <use xlink:href="#E1-MJMAIN-29" x="7831" y="0"></use>
 <use xlink:href="#E1-MJMAIN-3D" x="8499" y="0"></use>
 <use xlink:href="#E1-MJMAIN-31" x="9555" y="0"></use>
 <use xlink:href="#E1-MJMAIN-29" x="10055" y="0"></use>
 <use xlink:href="#E1-MJMAIN-3D" x="10723" y="0"></use>
 <use xlink:href="#E1-MJMATHI-3BB" x="11779" y="0"></use>
 <use xlink:href="#E1-MJMATHI-68" x="12363" y="0"></use>
 <use xlink:href="#E1-MJMAIN-2B" x="13161" y="0"></use>
 <use xlink:href="#E1-MJMATHI-6F" x="14162" y="0"></use>
 <use xlink:href="#E1-MJMAIN-28" x="14647" y="0"></use>
 <use xlink:href="#E1-MJMATHI-68" x="15037" y="0"></use>
 <use xlink:href="#E1-MJMAIN-29" x="15613" y="0"></use>
 <use xlink:href="#E1-MJMAIN-2C" x="16003" y="0"></use>
 <use xlink:href="#E1-MJMATHI-50" x="16448" y="0"></use>
 <use xlink:href="#E1-MJMAIN-28" x="17200" y="0"></use>
 <use xlink:href="#E1-MJMATHI-4E" x="17589" y="0"></use>
 <use xlink:href="#E1-MJMAIN-28" x="18478" y="0"></use>
 <use xlink:href="#E1-MJMATHI-74" x="18867" y="0"></use>
 <use xlink:href="#E1-MJMAIN-2B" x="19451" y="0"></use>
 <use xlink:href="#E1-MJMATHI-68" x="20452" y="0"></use>
 <use xlink:href="#E1-MJMAIN-29" x="21028" y="0"></use>
 <use xlink:href="#E1-MJMAIN-2212" x="21640" y="0"></use>
 <use xlink:href="#E1-MJMATHI-4E" x="22641" y="0"></use>
 <use xlink:href="#E1-MJMAIN-28" x="23529" y="0"></use>
 <use xlink:href="#E1-MJMATHI-74" x="23919" y="0"></use>
 <use xlink:href="#E1-MJMAIN-29" x="24280" y="0"></use>
 <use xlink:href="#E1-MJMAIN-2265" x="24947" y="0"></use>
 <use xlink:href="#E1-MJMAIN-32" x="26004" y="0"></use>
 <use xlink:href="#E1-MJMAIN-29" x="26504" y="0"></use>
 <use xlink:href="#E1-MJMAIN-3D" x="27171" y="0"></use>
 <use xlink:href="#E1-MJMATHI-6F" x="28228" y="0"></use>
 <use xlink:href="#E1-MJMAIN-28" x="28713" y="0"></use>
 <use xlink:href="#E1-MJMATHI-68" x="29103" y="0"></use>
 <use xlink:href="#E1-MJMAIN-29" x="29679" y="0"></use>
</g>
</svg>