<?xml version="1.0" encoding="UTF-8"?>
<svg xmlns="http://www.w3.org/2000/svg" xmlns:xlink="http://www.w3.org/1999/xlink" width="378pt" height="171pt" viewBox="0 0 378 171" version="1.1">
<g id="surface1">
<path style="fill:none;stroke-width:1;stroke-linecap:round;stroke-linejoin:miter;stroke:rgb(0%,0%,0%);stroke-opacity:1;stroke-miterlimit:10;" d="M 169 98.515625 L 198.0625 98.4875 " transform="matrix(1.25,0,0,1.25,-116.25,-31.25)"/>
<path style="fill:none;stroke-width:1;stroke-linecap:butt;stroke-linejoin:miter;stroke:rgb(0%,0%,0%);stroke-opacity:1;stroke-miterlimit:10;" d="M 202.0625 98.484375 L 198.0625 98.4875 M 198.0625 96.9875 L 202.0625 98.484375 L 198.0625 99.9875 " transform="matrix(1.25,0,0,1.25,-116.25,-31.25)"/>
<path style=" stroke:none;fill-rule:nonzero;fill:rgb(100%,100%,100%);fill-opacity:1;" d="M 1.25 170 L 95 170 L 95 130.625 L 1.25 130.625 Z M 1.25 170 "/>
<path style="fill:none;stroke-width:1;stroke-linecap:round;stroke-linejoin:round;stroke:rgb(0%,0%,0%);stroke-opacity:1;stroke-miterlimit:10;" d="M 94 129.5 L 169 129.5 L 169 161 L 94 161 Z M 94 129.5 " transform="matrix(1.25,0,0,1.25,-116.25,-31.25)"/>
<path style=" stroke:none;fill-rule:nonzero;fill:rgb(0%,0%,0%);fill-opacity:1;" d="M 39.453125 148.632812 L 39.453125 150.292969 L 38.339844 150.292969 C 38.613281 149.570312 38.886719 148.75 39.121094 147.832031 L 41.289062 147.832031 L 41.289062 147.070312 L 39.316406 147.070312 C 39.414062 146.621094 39.511719 146.132812 39.628906 145.625 L 38.886719 145.46875 C 38.769531 146.015625 38.671875 146.5625 38.554688 147.070312 L 37.441406 147.070312 L 37.441406 147.832031 L 38.378906 147.832031 C 38.125 148.828125 37.851562 149.6875 37.519531 150.351562 L 37.695312 151.035156 L 39.453125 151.035156 L 39.453125 152.714844 C 38.789062 152.832031 38.105469 152.949219 37.363281 153.027344 L 37.460938 153.828125 C 38.144531 153.710938 38.808594 153.613281 39.453125 153.476562 L 39.453125 155.820312 L 40.195312 155.820312 L 40.195312 153.320312 L 41.269531 153.046875 L 41.269531 152.285156 C 40.9375 152.363281 40.585938 152.460938 40.195312 152.558594 L 40.195312 151.035156 L 41.230469 151.035156 L 41.230469 150.292969 L 40.195312 150.292969 L 40.195312 148.632812 Z M 42.773438 148.046875 L 42.773438 148.710938 L 45.996094 148.710938 L 45.996094 148.046875 L 42.773438 148.046875 C 43.339844 147.5 43.886719 146.894531 44.414062 146.25 C 45.273438 147.34375 46.230469 148.28125 47.285156 149.042969 L 47.714844 148.417969 C 46.699219 147.695312 45.703125 146.738281 44.707031 145.527344 L 44.140625 145.527344 C 43.222656 146.640625 42.1875 147.636719 41.035156 148.476562 L 41.484375 149.160156 C 41.914062 148.808594 42.34375 148.4375 42.773438 148.046875 Z M 43.554688 155.742188 C 44.101562 155.742188 44.394531 155.449219 44.394531 154.863281 L 44.394531 149.609375 L 41.738281 149.609375 L 41.738281 155.820312 L 42.441406 155.820312 L 42.441406 153.710938 L 43.710938 153.710938 L 43.710938 154.726562 C 43.710938 154.960938 43.574219 155.097656 43.339844 155.097656 L 42.832031 155.078125 L 43.007812 155.742188 Z M 42.441406 153.085938 L 42.441406 152.011719 L 43.710938 152.011719 L 43.710938 153.085938 Z M 42.441406 151.386719 L 42.441406 150.273438 L 43.710938 150.273438 L 43.710938 151.386719 Z M 45.058594 149.921875 L 45.058594 153.964844 L 45.703125 153.964844 L 45.703125 149.921875 Z M 46.289062 155.761719 C 46.835938 155.761719 47.109375 155.429688 47.109375 154.785156 L 47.109375 149.414062 L 46.40625 149.414062 L 46.40625 154.609375 C 46.40625 154.921875 46.289062 155.097656 46.035156 155.097656 C 45.761719 155.097656 45.46875 155.078125 45.175781 155.039062 L 45.332031 155.761719 Z M 46.289062 155.761719 "/>
<path style=" stroke:none;fill-rule:nonzero;fill:rgb(0%,0%,0%);fill-opacity:1;" d="M 53.261719 148.105469 C 52.539062 151.09375 50.976562 153.398438 48.554688 154.960938 L 49.042969 155.664062 C 51.40625 154.121094 52.96875 151.914062 53.710938 149.042969 C 53.769531 149.179688 53.808594 149.335938 53.886719 149.53125 C 55.039062 152.5 56.523438 154.550781 58.359375 155.644531 L 58.867188 155 C 57.070312 153.886719 55.664062 151.972656 54.609375 149.296875 C 53.925781 147.460938 53.066406 146.191406 52.070312 145.488281 L 51.40625 145.917969 C 52.109375 146.445312 52.734375 147.167969 53.261719 148.105469 Z M 53.261719 148.105469 "/>
<path style=" stroke:none;fill-rule:nonzero;fill:rgb(100%,100%,100%);fill-opacity:1;" d="M 17.03125 96.625 L 110.78125 96.625 L 110.78125 57.25 L 17.03125 57.25 Z M 17.03125 96.625 "/>
<path style="fill:none;stroke-width:1;stroke-linecap:round;stroke-linejoin:round;stroke:rgb(0%,0%,0%);stroke-opacity:1;stroke-miterlimit:10;" d="M 106.625 70.8 L 181.625 70.8 L 181.625 102.3 L 106.625 102.3 Z M 106.625 70.8 " transform="matrix(1.25,0,0,1.25,-116.25,-31.25)"/>
<path style=" stroke:none;fill-rule:nonzero;fill:rgb(100%,100%,100%);fill-opacity:1;" d="M 10 104.125 L 103.75 104.125 L 103.75 64.75 L 10 64.75 Z M 10 104.125 "/>
<path style="fill:none;stroke-width:1;stroke-linecap:round;stroke-linejoin:round;stroke:rgb(0%,0%,0%);stroke-opacity:1;stroke-miterlimit:10;" d="M 101 76.8 L 176 76.8 L 176 108.3 L 101 108.3 Z M 101 76.8 " transform="matrix(1.25,0,0,1.25,-116.25,-31.25)"/>
<path style=" stroke:none;fill-rule:nonzero;fill:rgb(100%,100%,100%);fill-opacity:1;" d="M 1.25 111.625 L 95 111.625 L 95 72.25 L 1.25 72.25 Z M 1.25 111.625 "/>
<path style="fill:none;stroke-width:1;stroke-linecap:round;stroke-linejoin:round;stroke:rgb(0%,0%,0%);stroke-opacity:1;stroke-miterlimit:10;" d="M 94 82.8 L 169 82.8 L 169 114.3 L 94 114.3 Z M 94 82.8 " transform="matrix(1.25,0,0,1.25,-116.25,-31.25)"/>
<path style=" stroke:none;fill-rule:nonzero;fill:rgb(0%,0%,0%);fill-opacity:1;" d="M 32.792969 87.894531 L 32.792969 96.703125 L 33.574219 96.703125 L 33.574219 87.894531 Z M 35.15625 87.347656 L 35.15625 97.464844 L 35.957031 97.464844 L 35.957031 87.347656 Z M 30.566406 87.386719 L 30.566406 92.328125 C 30.546875 94.457031 30.097656 96 29.199219 96.957031 L 29.804688 97.503906 C 30.800781 96.410156 31.308594 94.691406 31.347656 92.328125 L 31.347656 87.386719 Z M 27.441406 87.230469 L 26.894531 87.777344 C 27.695312 88.382812 28.339844 88.96875 28.828125 89.535156 L 29.375 88.96875 C 28.847656 88.382812 28.203125 87.816406 27.441406 87.230469 Z M 26.132812 90.570312 L 26.132812 91.332031 L 27.792969 91.332031 L 27.792969 95.707031 C 27.792969 95.902344 27.695312 96.078125 27.539062 96.214844 L 27.851562 96.9375 C 28.535156 96.449219 29.160156 95.882812 29.746094 95.257812 L 29.53125 94.417969 C 29.199219 94.769531 28.867188 95.101562 28.554688 95.394531 L 28.554688 90.570312 Z M 26.132812 90.570312 "/>
<path style=" stroke:none;fill-rule:nonzero;fill:rgb(0%,0%,0%);fill-opacity:1;" d="M 40.9375 95.160156 C 39.921875 95.589844 38.710938 95.921875 37.34375 96.175781 L 37.441406 96.996094 C 38.75 96.722656 39.921875 96.371094 40.9375 95.960938 Z M 39.238281 87.152344 C 38.828125 88.480469 38.359375 89.632812 37.792969 90.667969 C 37.695312 90.804688 37.578125 90.921875 37.441406 90.980469 L 37.65625 91.722656 C 38.242188 91.625 38.808594 91.507812 39.375 91.390625 C 38.828125 92.445312 38.339844 93.1875 37.949219 93.636719 C 37.851562 93.734375 37.714844 93.8125 37.578125 93.890625 L 37.792969 94.632812 C 38.828125 94.476562 39.902344 94.203125 41.035156 93.773438 L 41.035156 93.03125 C 40.273438 93.324219 39.511719 93.539062 38.769531 93.695312 C 39.375 92.894531 40.15625 91.566406 41.113281 89.691406 L 40.371094 89.398438 C 40.15625 89.847656 39.960938 90.257812 39.746094 90.667969 C 39.296875 90.746094 38.847656 90.824219 38.398438 90.902344 C 38.945312 90.042969 39.472656 88.890625 40.019531 87.445312 Z M 42.304688 93.910156 C 41.972656 94.847656 41.503906 95.746094 40.878906 96.625 L 41.582031 97.015625 C 42.109375 96.253906 42.597656 95.316406 43.007812 94.203125 Z M 46.523438 93.910156 L 45.800781 94.144531 C 46.25 94.964844 46.660156 95.921875 47.03125 97.015625 L 47.714844 96.703125 C 47.382812 95.707031 46.972656 94.789062 46.523438 93.910156 Z M 44.003906 97.328125 C 44.648438 97.328125 44.980469 97.035156 44.980469 96.429688 L 44.980469 93.265625 L 47.363281 93.265625 L 47.363281 92.542969 L 44.980469 92.542969 L 44.980469 90.355469 L 43.476562 90.355469 C 43.59375 89.984375 43.730469 89.554688 43.867188 89.144531 L 47.363281 89.144531 L 47.363281 88.382812 L 44.101562 88.382812 C 44.199219 88.011719 44.296875 87.640625 44.394531 87.25 L 43.613281 87.113281 C 43.496094 87.542969 43.398438 87.972656 43.28125 88.382812 L 40.78125 88.382812 L 40.78125 89.144531 L 43.066406 89.144531 C 42.929688 89.554688 42.792969 89.964844 42.65625 90.355469 L 41.191406 90.355469 L 41.191406 91.097656 L 42.363281 91.097656 C 42.128906 91.625 41.875 92.132812 41.640625 92.5625 L 41.816406 93.265625 L 44.199219 93.265625 L 44.199219 96.195312 C 44.199219 96.488281 44.042969 96.625 43.769531 96.625 L 42.695312 96.585938 L 42.890625 97.328125 Z M 43.183594 91.097656 L 44.199219 91.097656 L 44.199219 92.542969 L 42.539062 92.542969 C 42.753906 92.09375 42.96875 91.605469 43.183594 91.097656 Z M 43.183594 91.097656 "/>
<path style=" stroke:none;fill-rule:nonzero;fill:rgb(0%,0%,0%);fill-opacity:1;" d="M 50.703125 90.257812 L 50.703125 91.917969 L 49.589844 91.917969 C 49.863281 91.195312 50.136719 90.375 50.371094 89.457031 L 52.539062 89.457031 L 52.539062 88.695312 L 50.566406 88.695312 C 50.664062 88.246094 50.761719 87.757812 50.878906 87.25 L 50.136719 87.09375 C 50.019531 87.640625 49.921875 88.1875 49.804688 88.695312 L 48.691406 88.695312 L 48.691406 89.457031 L 49.628906 89.457031 C 49.375 90.453125 49.101562 91.3125 48.769531 91.976562 L 48.945312 92.660156 L 50.703125 92.660156 L 50.703125 94.339844 C 50.039062 94.457031 49.355469 94.574219 48.613281 94.652344 L 48.710938 95.453125 C 49.394531 95.335938 50.058594 95.238281 50.703125 95.101562 L 50.703125 97.445312 L 51.445312 97.445312 L 51.445312 94.945312 L 52.519531 94.671875 L 52.519531 93.910156 C 52.1875 93.988281 51.835938 94.085938 51.445312 94.183594 L 51.445312 92.660156 L 52.480469 92.660156 L 52.480469 91.917969 L 51.445312 91.917969 L 51.445312 90.257812 Z M 54.023438 89.671875 L 54.023438 90.335938 L 57.246094 90.335938 L 57.246094 89.671875 L 54.023438 89.671875 C 54.589844 89.125 55.136719 88.519531 55.664062 87.875 C 56.523438 88.96875 57.480469 89.90625 58.535156 90.667969 L 58.964844 90.042969 C 57.949219 89.320312 56.953125 88.363281 55.957031 87.152344 L 55.390625 87.152344 C 54.472656 88.265625 53.4375 89.261719 52.285156 90.101562 L 52.734375 90.785156 C 53.164062 90.433594 53.59375 90.0625 54.023438 89.671875 Z M 54.804688 97.367188 C 55.351562 97.367188 55.644531 97.074219 55.644531 96.488281 L 55.644531 91.234375 L 52.988281 91.234375 L 52.988281 97.445312 L 53.691406 97.445312 L 53.691406 95.335938 L 54.960938 95.335938 L 54.960938 96.351562 C 54.960938 96.585938 54.824219 96.722656 54.589844 96.722656 L 54.082031 96.703125 L 54.257812 97.367188 Z M 53.691406 94.710938 L 53.691406 93.636719 L 54.960938 93.636719 L 54.960938 94.710938 Z M 53.691406 93.011719 L 53.691406 91.898438 L 54.960938 91.898438 L 54.960938 93.011719 Z M 56.308594 91.546875 L 56.308594 95.589844 L 56.953125 95.589844 L 56.953125 91.546875 Z M 57.539062 97.386719 C 58.085938 97.386719 58.359375 97.054688 58.359375 96.410156 L 58.359375 91.039062 L 57.65625 91.039062 L 57.65625 96.234375 C 57.65625 96.546875 57.539062 96.722656 57.285156 96.722656 C 57.011719 96.722656 56.71875 96.703125 56.425781 96.664062 L 56.582031 97.386719 Z M 57.539062 97.386719 "/>
<path style=" stroke:none;fill-rule:nonzero;fill:rgb(0%,0%,0%);fill-opacity:1;" d="M 64.511719 89.730469 C 63.789062 92.71875 62.226562 95.023438 59.804688 96.585938 L 60.292969 97.289062 C 62.65625 95.746094 64.21875 93.539062 64.960938 90.667969 C 65.019531 90.804688 65.058594 90.960938 65.136719 91.15625 C 66.289062 94.125 67.773438 96.175781 69.609375 97.269531 L 70.117188 96.625 C 68.320312 95.511719 66.914062 93.597656 65.859375 90.921875 C 65.175781 89.085938 64.316406 87.816406 63.320312 87.113281 L 62.65625 87.542969 C 63.359375 88.070312 63.984375 88.792969 64.511719 89.730469 Z M 64.511719 89.730469 "/>
<path style=" stroke:none;fill-rule:nonzero;fill:rgb(100%,100%,100%);fill-opacity:1;" d="M 282.542969 95.617188 L 376.292969 95.617188 L 376.292969 56.242188 L 282.542969 56.242188 Z M 282.542969 95.617188 "/>
<path style="fill:none;stroke-width:1;stroke-linecap:round;stroke-linejoin:round;stroke:rgb(0%,0%,0%);stroke-opacity:1;stroke-miterlimit:10;" d="M 319.034375 69.99375 L 394.034375 69.99375 L 394.034375 101.49375 L 319.034375 101.49375 Z M 319.034375 69.99375 " transform="matrix(1.25,0,0,1.25,-116.25,-31.25)"/>
<path style=" stroke:none;fill-rule:nonzero;fill:rgb(100%,100%,100%);fill-opacity:1;" d="M 274 104 L 367.75 104 L 367.75 64.625 L 274 64.625 Z M 274 104 "/>
<path style="fill:none;stroke-width:1;stroke-linecap:round;stroke-linejoin:round;stroke:rgb(0%,0%,0%);stroke-opacity:1;stroke-miterlimit:10;" d="M 312.2 76.7 L 387.2 76.7 L 387.2 108.2 L 312.2 108.2 Z M 312.2 76.7 " transform="matrix(1.25,0,0,1.25,-116.25,-31.25)"/>
<path style=" stroke:none;fill-rule:nonzero;fill:rgb(100%,100%,100%);fill-opacity:1;" d="M 265.25 111.5 L 359 111.5 L 359 72.125 L 265.25 72.125 Z M 265.25 111.5 "/>
<path style="fill:none;stroke-width:1;stroke-linecap:round;stroke-linejoin:round;stroke:rgb(0%,0%,0%);stroke-opacity:1;stroke-miterlimit:10;" d="M 305.2 82.7 L 380.2 82.7 L 380.2 114.2 L 305.2 114.2 Z M 305.2 82.7 " transform="matrix(1.25,0,0,1.25,-116.25,-31.25)"/>
<path style=" stroke:none;fill-rule:nonzero;fill:rgb(0%,0%,0%);fill-opacity:1;" d="M 296.792969 87.769531 L 296.792969 96.578125 L 297.574219 96.578125 L 297.574219 87.769531 Z M 299.15625 87.222656 L 299.15625 97.339844 L 299.957031 97.339844 L 299.957031 87.222656 Z M 294.566406 87.261719 L 294.566406 92.203125 C 294.546875 94.332031 294.097656 95.875 293.199219 96.832031 L 293.804688 97.378906 C 294.800781 96.285156 295.308594 94.566406 295.347656 92.203125 L 295.347656 87.261719 Z M 291.441406 87.105469 L 290.894531 87.652344 C 291.695312 88.257812 292.339844 88.84375 292.828125 89.410156 L 293.375 88.84375 C 292.847656 88.257812 292.203125 87.691406 291.441406 87.105469 Z M 290.132812 90.445312 L 290.132812 91.207031 L 291.792969 91.207031 L 291.792969 95.582031 C 291.792969 95.777344 291.695312 95.953125 291.539062 96.089844 L 291.851562 96.8125 C 292.535156 96.324219 293.160156 95.757812 293.746094 95.132812 L 293.53125 94.292969 C 293.199219 94.644531 292.867188 94.976562 292.554688 95.269531 L 292.554688 90.445312 Z M 290.132812 90.445312 "/>
<path style=" stroke:none;fill-rule:nonzero;fill:rgb(0%,0%,0%);fill-opacity:1;" d="M 304.9375 95.035156 C 303.921875 95.464844 302.710938 95.796875 301.34375 96.050781 L 301.441406 96.871094 C 302.75 96.597656 303.921875 96.246094 304.9375 95.835938 Z M 303.238281 87.027344 C 302.828125 88.355469 302.359375 89.507812 301.792969 90.542969 C 301.695312 90.679688 301.578125 90.796875 301.441406 90.855469 L 301.65625 91.597656 C 302.242188 91.5 302.808594 91.382812 303.375 91.265625 C 302.828125 92.320312 302.339844 93.0625 301.949219 93.511719 C 301.851562 93.609375 301.714844 93.6875 301.578125 93.765625 L 301.792969 94.507812 C 302.828125 94.351562 303.902344 94.078125 305.035156 93.648438 L 305.035156 92.90625 C 304.273438 93.199219 303.511719 93.414062 302.769531 93.570312 C 303.375 92.769531 304.15625 91.441406 305.113281 89.566406 L 304.371094 89.273438 C 304.15625 89.722656 303.960938 90.132812 303.746094 90.542969 C 303.296875 90.621094 302.847656 90.699219 302.398438 90.777344 C 302.945312 89.917969 303.472656 88.765625 304.019531 87.320312 Z M 306.304688 93.785156 C 305.972656 94.722656 305.503906 95.621094 304.878906 96.5 L 305.582031 96.890625 C 306.109375 96.128906 306.597656 95.191406 307.007812 94.078125 Z M 310.523438 93.785156 L 309.800781 94.019531 C 310.25 94.839844 310.660156 95.796875 311.03125 96.890625 L 311.714844 96.578125 C 311.382812 95.582031 310.972656 94.664062 310.523438 93.785156 Z M 308.003906 97.203125 C 308.648438 97.203125 308.980469 96.910156 308.980469 96.304688 L 308.980469 93.140625 L 311.363281 93.140625 L 311.363281 92.417969 L 308.980469 92.417969 L 308.980469 90.230469 L 307.476562 90.230469 C 307.59375 89.859375 307.730469 89.429688 307.867188 89.019531 L 311.363281 89.019531 L 311.363281 88.257812 L 308.101562 88.257812 C 308.199219 87.886719 308.296875 87.515625 308.394531 87.125 L 307.613281 86.988281 C 307.496094 87.417969 307.398438 87.847656 307.28125 88.257812 L 304.78125 88.257812 L 304.78125 89.019531 L 307.066406 89.019531 C 306.929688 89.429688 306.792969 89.839844 306.65625 90.230469 L 305.191406 90.230469 L 305.191406 90.972656 L 306.363281 90.972656 C 306.128906 91.5 305.875 92.007812 305.640625 92.4375 L 305.816406 93.140625 L 308.199219 93.140625 L 308.199219 96.070312 C 308.199219 96.363281 308.042969 96.5 307.769531 96.5 L 306.695312 96.460938 L 306.890625 97.203125 Z M 307.183594 90.972656 L 308.199219 90.972656 L 308.199219 92.417969 L 306.539062 92.417969 C 306.753906 91.96875 306.96875 91.480469 307.183594 90.972656 Z M 307.183594 90.972656 "/>
<path style=" stroke:none;fill-rule:nonzero;fill:rgb(0%,0%,0%);fill-opacity:1;" d="M 314.273438 87.027344 L 314.273438 89.15625 L 312.90625 89.15625 L 312.90625 89.9375 L 314.273438 89.9375 C 313.921875 91.34375 313.355469 92.613281 312.535156 93.726562 L 312.886719 94.605469 C 313.453125 93.726562 313.921875 92.75 314.273438 91.695312 L 314.273438 97.300781 L 315.074219 97.300781 L 315.074219 91.65625 C 315.40625 92.085938 315.796875 92.652344 316.265625 93.355469 L 316.734375 92.671875 C 316.167969 91.988281 315.621094 91.363281 315.074219 90.796875 L 315.074219 89.9375 L 316.382812 89.9375 L 316.382812 89.15625 L 315.074219 89.15625 L 315.074219 87.027344 Z M 317.59375 92.105469 C 317.28125 93.511719 316.773438 94.761719 316.070312 95.914062 L 316.773438 96.363281 C 317.4375 95.210938 317.984375 93.863281 318.335938 92.28125 Z M 321.65625 92.066406 L 320.933594 92.300781 C 321.363281 93.511719 321.773438 94.898438 322.144531 96.460938 L 322.886719 96.128906 C 322.535156 94.683594 322.144531 93.335938 321.65625 92.066406 Z M 319.136719 97.183594 C 319.800781 97.183594 320.132812 96.851562 320.132812 96.1875 L 320.132812 91.1875 L 322.886719 91.1875 L 322.886719 90.40625 L 316.578125 90.40625 L 316.578125 91.1875 L 319.332031 91.1875 L 319.332031 95.992188 C 319.332031 96.304688 319.175781 96.480469 318.863281 96.480469 C 318.53125 96.480469 318.199219 96.460938 317.847656 96.441406 L 318.003906 97.183594 Z M 317.183594 87.671875 L 317.183594 88.433594 L 322.300781 88.433594 L 322.300781 87.671875 Z M 317.183594 87.671875 "/>
<path style=" stroke:none;fill-rule:nonzero;fill:rgb(0%,0%,0%);fill-opacity:1;" d="M 331.636719 93.433594 C 331.304688 94.507812 330.914062 95.40625 330.464844 96.167969 L 324.273438 96.167969 L 324.273438 96.929688 L 333.765625 96.929688 L 333.765625 96.167969 L 331.34375 96.167969 C 331.773438 95.425781 332.125 94.585938 332.417969 93.648438 Z M 326.246094 93.570312 L 325.523438 93.804688 C 325.875 94.46875 326.167969 95.152344 326.402344 95.875 L 327.125 95.679688 C 326.871094 94.898438 326.578125 94.175781 326.246094 93.570312 Z M 328.863281 93.355469 L 328.101562 93.589844 C 328.394531 94.292969 328.648438 95.015625 328.824219 95.777344 L 329.546875 95.582031 C 329.351562 94.742188 329.117188 94 328.863281 93.355469 Z M 326.089844 92.28125 L 326.089844 92.984375 L 331.929688 92.984375 L 331.929688 92.28125 Z M 325.640625 88.6875 L 326.5 88.6875 C 326.695312 89.117188 326.871094 89.585938 327.007812 90.054688 L 327.75 89.78125 C 327.632812 89.449219 327.476562 89.078125 327.300781 88.6875 L 328.921875 88.6875 L 328.921875 87.964844 L 325.953125 87.964844 C 326.070312 87.691406 326.167969 87.417969 326.246094 87.125 L 325.464844 86.96875 C 325.152344 88.003906 324.644531 88.941406 323.941406 89.800781 L 324.644531 90.230469 C 325.015625 89.761719 325.347656 89.253906 325.640625 88.6875 Z M 330.367188 88.6875 L 331.34375 88.6875 C 331.597656 89.15625 331.832031 89.644531 332.027344 90.152344 L 332.769531 89.878906 C 332.613281 89.507812 332.4375 89.117188 332.183594 88.6875 L 333.980469 88.6875 L 333.980469 87.964844 L 330.679688 87.964844 C 330.777344 87.691406 330.875 87.417969 330.953125 87.125 L 330.171875 86.96875 C 329.9375 87.847656 329.566406 88.628906 329.039062 89.351562 L 329.722656 89.78125 C 329.957031 89.449219 330.171875 89.078125 330.367188 88.6875 Z M 328.746094 89.800781 C 327.457031 90.757812 325.835938 91.558594 323.882812 92.203125 L 324.273438 92.90625 C 326.226562 92.222656 327.808594 91.402344 329 90.464844 C 330.308594 91.480469 331.871094 92.28125 333.707031 92.90625 L 334.117188 92.222656 C 332.28125 91.636719 330.660156 90.816406 329.253906 89.800781 Z M 328.746094 89.800781 "/>
<path style=" stroke:none;fill-rule:nonzero;fill:rgb(100%,100%,100%);fill-opacity:1;" d="M 138.703125 111.5 L 232.453125 111.5 L 232.453125 72.125 L 138.703125 72.125 Z M 138.703125 111.5 "/>
<path style="fill:none;stroke-width:1;stroke-linecap:round;stroke-linejoin:round;stroke:rgb(0%,0%,0%);stroke-opacity:1;stroke-miterlimit:10;" d="M 203.9625 82.7 L 278.9625 82.7 L 278.9625 114.2 L 203.9625 114.2 Z M 203.9625 82.7 " transform="matrix(1.25,0,0,1.25,-116.25,-31.25)"/>
<path style=" stroke:none;fill-rule:nonzero;fill:rgb(0%,0%,0%);fill-opacity:1;" d="M 169.875 89.117188 L 173.488281 89.117188 L 173.488281 88.335938 L 170.148438 88.335938 C 170.246094 87.925781 170.363281 87.515625 170.441406 87.066406 L 169.621094 86.910156 C 169.328125 88.53125 168.800781 89.800781 168 90.757812 L 168.507812 91.402344 C 169.054688 90.796875 169.503906 90.015625 169.875 89.117188 Z M 171.046875 89.878906 L 170.402344 90.289062 C 170.96875 91.050781 171.417969 91.734375 171.769531 92.359375 L 172.433594 91.890625 C 172.121094 91.324219 171.652344 90.660156 171.046875 89.878906 Z M 166.691406 86.96875 L 166.691406 92.515625 L 167.53125 92.515625 L 167.53125 86.96875 Z M 164.367188 87.515625 L 164.367188 92.105469 L 165.167969 92.105469 L 165.167969 87.515625 Z M 172.570312 93.082031 L 164.855469 93.082031 L 164.855469 96.207031 L 163.585938 96.207031 L 163.585938 96.949219 L 173.78125 96.949219 L 173.78125 96.207031 L 172.570312 96.207031 Z M 165.636719 96.207031 L 165.636719 93.824219 L 167.121094 93.824219 L 167.121094 96.207031 Z M 167.902344 96.207031 L 167.902344 93.824219 L 169.484375 93.824219 L 169.484375 96.207031 Z M 170.246094 96.207031 L 170.246094 93.824219 L 171.789062 93.824219 L 171.789062 96.207031 Z M 170.246094 96.207031 "/>
<path style=" stroke:none;fill-rule:nonzero;fill:rgb(0%,0%,0%);fill-opacity:1;" d="M 177.023438 86.988281 L 177.023438 88.882812 L 175.109375 88.882812 L 175.109375 89.566406 L 177.179688 89.566406 L 177.179688 91.949219 L 177.921875 91.949219 L 177.921875 89.566406 L 180.070312 89.566406 L 180.070312 88.882812 L 177.765625 88.882812 L 177.765625 88.179688 L 179.699219 88.179688 L 179.699219 87.554688 L 177.765625 87.554688 L 177.765625 86.988281 Z M 183.488281 92.242188 L 176.515625 92.242188 L 176.515625 97.339844 L 177.296875 97.339844 L 177.296875 96.871094 L 182.707031 96.871094 L 182.707031 97.339844 L 183.488281 97.339844 Z M 177.296875 96.246094 L 177.296875 95.523438 L 182.707031 95.523438 L 182.707031 96.246094 Z M 177.296875 94.9375 L 177.296875 94.175781 L 182.707031 94.175781 L 182.707031 94.9375 Z M 177.296875 93.609375 L 177.296875 92.867188 L 182.707031 92.867188 L 182.707031 93.609375 Z M 179.113281 89.917969 L 178.488281 90.132812 C 178.78125 90.601562 179.035156 91.167969 179.289062 91.773438 L 179.875 91.5 C 179.660156 90.953125 179.40625 90.425781 179.113281 89.917969 Z M 180.734375 88.394531 C 180.929688 89.195312 181.320312 89.878906 181.925781 90.484375 C 181.4375 90.816406 180.851562 91.109375 180.167969 91.324219 L 180.519531 92.007812 C 181.261719 91.734375 181.925781 91.382812 182.492188 90.972656 C 183.058594 91.402344 183.761719 91.773438 184.601562 92.066406 L 184.972656 91.402344 C 184.210938 91.128906 183.566406 90.835938 183.078125 90.503906 C 183.683594 89.898438 184.132812 89.195312 184.40625 88.375 L 184.40625 87.691406 L 180.226562 87.691406 L 180.226562 88.394531 Z M 182.472656 90.054688 C 181.925781 89.546875 181.59375 89.019531 181.457031 88.394531 L 183.585938 88.394531 C 183.351562 89.019531 182.980469 89.566406 182.472656 90.054688 Z M 176.007812 89.917969 C 175.792969 90.582031 175.460938 91.1875 175.011719 91.734375 L 175.597656 92.105469 C 176.066406 91.539062 176.417969 90.835938 176.691406 90.054688 Z M 176.007812 89.917969 "/>
<path style=" stroke:none;fill-rule:nonzero;fill:rgb(0%,0%,0%);fill-opacity:1;" d="M 195.949219 89.273438 L 193.78125 89.273438 C 194.210938 88.726562 194.621094 88.042969 195.011719 87.242188 L 194.191406 86.929688 C 193.820312 87.769531 193.390625 88.550781 192.902344 89.273438 L 186.457031 89.273438 L 186.457031 91.792969 L 187.238281 91.792969 L 187.238281 90.054688 L 195.148438 90.054688 L 195.148438 91.792969 L 195.949219 91.792969 Z M 188.175781 91.011719 L 188.175781 91.734375 L 193.078125 91.734375 C 192.589844 92.007812 191.886719 92.339844 190.929688 92.75 L 190.929688 93.6875 L 186.378906 93.6875 L 186.378906 94.449219 L 190.929688 94.449219 L 190.929688 96.070312 C 190.929688 96.382812 190.792969 96.539062 190.519531 96.539062 C 190.03125 96.539062 189.582031 96.539062 189.171875 96.519531 L 189.367188 97.261719 L 190.792969 97.261719 C 191.4375 97.261719 191.75 96.96875 191.75 96.363281 L 191.75 94.449219 L 196.046875 94.449219 L 196.046875 93.6875 L 191.75 93.6875 L 191.75 93.121094 C 192.667969 92.671875 193.507812 92.203125 194.25 91.734375 L 194.25 91.011719 Z M 188.058594 87.105469 L 187.316406 87.457031 C 187.746094 87.984375 188.136719 88.550781 188.507812 89.214844 L 189.210938 88.863281 C 188.859375 88.21875 188.449219 87.632812 188.058594 87.105469 Z M 190.773438 86.890625 L 190.050781 87.242188 C 190.421875 87.789062 190.792969 88.394531 191.125 89.097656 L 191.847656 88.746094 C 191.515625 88.0625 191.144531 87.4375 190.773438 86.890625 Z M 190.773438 86.890625 "/>
<path style=" stroke:none;fill-rule:nonzero;fill:rgb(0%,0%,0%);fill-opacity:1;" d="M 204.035156 92.28125 C 202.355469 93.316406 200.34375 94.175781 198 94.898438 L 198.332031 95.640625 C 200.695312 94.878906 202.648438 94 204.25 93.003906 Z M 199.5625 89.585938 L 198.996094 90.132812 C 199.992188 90.875 200.792969 91.578125 201.378906 92.261719 L 201.925781 91.695312 C 201.28125 90.992188 200.5 90.289062 199.5625 89.585938 Z M 202.863281 97.242188 C 203.585938 97.222656 204.191406 97.203125 204.660156 97.203125 C 205.285156 97.203125 205.675781 97.007812 205.890625 96.597656 C 206.125 96.207031 206.261719 95.445312 206.300781 94.332031 C 206.339844 93.609375 206.398438 91.402344 206.4375 87.691406 L 198.273438 87.691406 L 198.273438 88.472656 L 205.617188 88.472656 C 205.597656 91.226562 205.597656 92.984375 205.578125 93.785156 C 205.539062 94.957031 205.441406 95.71875 205.265625 96.03125 C 205.089844 96.324219 204.835938 96.5 204.503906 96.5 C 203.878906 96.5 203.253906 96.480469 202.648438 96.460938 Z M 202.863281 97.242188 "/>
<path style=" stroke:none;fill-rule:nonzero;fill:rgb(100%,100%,100%);fill-opacity:1;" d="M 138.703125 170 L 232.453125 170 L 232.453125 130.625 L 138.703125 130.625 Z M 138.703125 170 "/>
<path style="fill:none;stroke-width:1;stroke-linecap:round;stroke-linejoin:round;stroke:rgb(0%,0%,0%);stroke-opacity:1;stroke-miterlimit:10;" d="M 203.9625 129.5 L 278.9625 129.5 L 278.9625 161 L 203.9625 161 Z M 203.9625 129.5 " transform="matrix(1.25,0,0,1.25,-116.25,-31.25)"/>
<path style=" stroke:none;fill-rule:nonzero;fill:rgb(0%,0%,0%);fill-opacity:1;" d="M 178.253906 146.425781 L 178.253906 147.148438 L 179.894531 147.148438 L 179.894531 147.988281 L 180.65625 147.988281 L 180.65625 147.148438 L 182.453125 147.148438 L 182.453125 147.988281 L 183.234375 147.988281 L 183.234375 147.148438 L 184.972656 147.148438 L 184.972656 146.425781 L 183.234375 146.425781 L 183.234375 145.527344 L 182.453125 145.527344 L 182.453125 146.425781 L 180.65625 146.425781 L 180.65625 145.527344 L 179.894531 145.527344 L 179.894531 146.425781 Z M 181.417969 153.496094 C 182.0625 154.433594 183.117188 155.214844 184.582031 155.839844 L 185.109375 155.195312 C 183.78125 154.726562 182.804688 154.121094 182.140625 153.339844 L 184.992188 153.339844 L 184.992188 152.597656 L 181.75 152.597656 C 181.828125 152.34375 181.886719 152.070312 181.925781 151.757812 L 184.230469 151.757812 L 184.230469 148.339844 L 178.859375 148.339844 L 178.859375 151.757812 L 181.222656 151.757812 C 181.164062 152.050781 181.085938 152.34375 181.007812 152.597656 L 178.039062 152.597656 L 178.039062 153.339844 L 180.65625 153.339844 C 180.578125 153.515625 180.460938 153.652344 180.34375 153.789062 C 179.855469 154.375 179.054688 154.804688 177.921875 155.117188 L 178.214844 155.78125 C 179.523438 155.410156 180.421875 154.921875 180.929688 154.257812 C 181.105469 154.042969 181.28125 153.769531 181.417969 153.496094 Z M 177.160156 150.058594 C 177.453125 150.507812 177.824219 151.113281 178.234375 151.855469 L 178.664062 151.210938 C 178.136719 150.449219 177.648438 149.785156 177.160156 149.199219 L 177.160156 148.457031 L 178.351562 148.457031 L 178.351562 147.714844 L 177.160156 147.714844 L 177.160156 145.546875 L 176.398438 145.546875 L 176.398438 147.714844 L 175.089844 147.714844 L 175.089844 148.457031 L 176.398438 148.457031 L 176.398438 148.515625 C 176.066406 149.902344 175.5 151.113281 174.71875 152.1875 L 175.070312 153.066406 C 175.617188 152.207031 176.046875 151.230469 176.398438 150.175781 L 176.398438 155.78125 L 177.160156 155.78125 Z M 183.507812 151.113281 L 179.582031 151.113281 L 179.582031 150.351562 L 183.507812 150.351562 Z M 179.582031 149.746094 L 179.582031 149.003906 L 183.507812 149.003906 L 183.507812 149.746094 Z M 179.582031 149.746094 "/>
<path style=" stroke:none;fill-rule:nonzero;fill:rgb(0%,0%,0%);fill-opacity:1;" d="M 186.632812 145.996094 L 186.632812 146.71875 L 187.765625 146.71875 L 187.765625 148.417969 L 186.339844 148.417969 L 186.339844 149.160156 L 187.726562 149.160156 C 187.609375 150.078125 187.238281 150.761719 186.613281 151.230469 L 187.21875 151.757812 C 187.960938 151.171875 188.390625 150.3125 188.507812 149.160156 L 189.992188 149.160156 L 189.992188 151.621094 L 190.773438 151.621094 L 190.773438 149.160156 L 192.160156 149.160156 L 192.160156 148.417969 L 190.773438 148.417969 L 190.773438 146.71875 L 191.90625 146.71875 L 191.90625 145.996094 Z M 188.546875 146.71875 L 189.992188 146.71875 L 189.992188 148.417969 L 188.546875 148.417969 Z M 192.824219 146.269531 L 192.824219 150.136719 L 193.605469 150.136719 L 193.605469 146.269531 Z M 186.886719 152.734375 L 186.886719 153.476562 L 190.851562 153.476562 L 190.851562 154.785156 L 186.261719 154.785156 L 186.261719 155.527344 L 196.144531 155.527344 L 196.144531 154.785156 L 191.652344 154.785156 L 191.652344 153.476562 L 195.519531 153.476562 L 195.519531 152.734375 L 191.652344 152.734375 L 191.652344 151.757812 L 190.851562 151.757812 L 190.851562 152.734375 Z M 194.738281 151.738281 C 195.324219 151.738281 195.636719 151.386719 195.636719 150.703125 L 195.636719 145.644531 L 194.855469 145.644531 L 194.855469 150.507812 C 194.855469 150.839844 194.71875 151.015625 194.464844 151.015625 C 194.015625 151.015625 193.546875 150.996094 193.058594 150.957031 L 193.234375 151.738281 Z M 194.738281 151.738281 "/>
<path style=" stroke:none;fill-rule:nonzero;fill:rgb(100%,100%,100%);fill-opacity:1;" d="M 265.25 170 L 359 170 L 359 130.625 L 265.25 130.625 Z M 265.25 170 "/>
<path style="fill:none;stroke-width:1;stroke-linecap:round;stroke-linejoin:round;stroke:rgb(0%,0%,0%);stroke-opacity:1;stroke-miterlimit:10;" d="M 305.2 129.5 L 380.2 129.5 L 380.2 161 L 305.2 161 Z M 305.2 129.5 " transform="matrix(1.25,0,0,1.25,-116.25,-31.25)"/>
<path style=" stroke:none;fill-rule:nonzero;fill:rgb(0%,0%,0%);fill-opacity:1;" d="M 303.453125 148.632812 L 303.453125 150.292969 L 302.339844 150.292969 C 302.613281 149.570312 302.886719 148.75 303.121094 147.832031 L 305.289062 147.832031 L 305.289062 147.070312 L 303.316406 147.070312 C 303.414062 146.621094 303.511719 146.132812 303.628906 145.625 L 302.886719 145.46875 C 302.769531 146.015625 302.671875 146.5625 302.554688 147.070312 L 301.441406 147.070312 L 301.441406 147.832031 L 302.378906 147.832031 C 302.125 148.828125 301.851562 149.6875 301.519531 150.351562 L 301.695312 151.035156 L 303.453125 151.035156 L 303.453125 152.714844 C 302.789062 152.832031 302.105469 152.949219 301.363281 153.027344 L 301.460938 153.828125 C 302.144531 153.710938 302.808594 153.613281 303.453125 153.476562 L 303.453125 155.820312 L 304.195312 155.820312 L 304.195312 153.320312 L 305.269531 153.046875 L 305.269531 152.285156 C 304.9375 152.363281 304.585938 152.460938 304.195312 152.558594 L 304.195312 151.035156 L 305.230469 151.035156 L 305.230469 150.292969 L 304.195312 150.292969 L 304.195312 148.632812 Z M 306.773438 148.046875 L 306.773438 148.710938 L 309.996094 148.710938 L 309.996094 148.046875 L 306.773438 148.046875 C 307.339844 147.5 307.886719 146.894531 308.414062 146.25 C 309.273438 147.34375 310.230469 148.28125 311.285156 149.042969 L 311.714844 148.417969 C 310.699219 147.695312 309.703125 146.738281 308.707031 145.527344 L 308.140625 145.527344 C 307.222656 146.640625 306.1875 147.636719 305.035156 148.476562 L 305.484375 149.160156 C 305.914062 148.808594 306.34375 148.4375 306.773438 148.046875 Z M 307.554688 155.742188 C 308.101562 155.742188 308.394531 155.449219 308.394531 154.863281 L 308.394531 149.609375 L 305.738281 149.609375 L 305.738281 155.820312 L 306.441406 155.820312 L 306.441406 153.710938 L 307.710938 153.710938 L 307.710938 154.726562 C 307.710938 154.960938 307.574219 155.097656 307.339844 155.097656 L 306.832031 155.078125 L 307.007812 155.742188 Z M 306.441406 153.085938 L 306.441406 152.011719 L 307.710938 152.011719 L 307.710938 153.085938 Z M 306.441406 151.386719 L 306.441406 150.273438 L 307.710938 150.273438 L 307.710938 151.386719 Z M 309.058594 149.921875 L 309.058594 153.964844 L 309.703125 153.964844 L 309.703125 149.921875 Z M 310.289062 155.761719 C 310.835938 155.761719 311.109375 155.429688 311.109375 154.785156 L 311.109375 149.414062 L 310.40625 149.414062 L 310.40625 154.609375 C 310.40625 154.921875 310.289062 155.097656 310.035156 155.097656 C 309.761719 155.097656 309.46875 155.078125 309.175781 155.039062 L 309.332031 155.761719 Z M 310.289062 155.761719 "/>
<path style=" stroke:none;fill-rule:nonzero;fill:rgb(0%,0%,0%);fill-opacity:1;" d="M 320.796875 149.414062 L 318.160156 149.414062 L 318.160156 145.488281 L 317.339844 145.488281 L 317.339844 149.414062 L 314.703125 149.414062 L 314.703125 146.347656 L 313.882812 146.347656 L 313.882812 150.195312 L 317.339844 150.195312 L 317.339844 154.335938 L 314.15625 154.335938 L 314.15625 151.25 L 313.335938 151.25 L 313.335938 155.742188 L 314.15625 155.742188 L 314.15625 155.097656 L 321.34375 155.097656 L 321.34375 155.742188 L 322.164062 155.742188 L 322.164062 151.25 L 321.34375 151.25 L 321.34375 154.335938 L 318.160156 154.335938 L 318.160156 150.195312 L 321.617188 150.195312 L 321.617188 146.347656 L 320.796875 146.347656 Z M 320.796875 149.414062 "/>
<path style="fill:none;stroke-width:1;stroke-linecap:round;stroke-linejoin:miter;stroke:rgb(0%,0%,0%);stroke-opacity:1;stroke-miterlimit:10;" d="M 305.2 98.45 L 284.8625 98.45 " transform="matrix(1.25,0,0,1.25,-116.25,-31.25)"/>
<path style="fill:none;stroke-width:1;stroke-linecap:butt;stroke-linejoin:miter;stroke:rgb(0%,0%,0%);stroke-opacity:1;stroke-miterlimit:10;" d="M 280.8625 98.45 L 284.8625 98.45 M 284.8625 99.95 L 280.8625 98.45 L 284.8625 96.95 " transform="matrix(1.25,0,0,1.25,-116.25,-31.25)"/>
<path style="fill:none;stroke-width:1;stroke-linecap:round;stroke-linejoin:miter;stroke:rgb(0%,0%,0%);stroke-opacity:1;stroke-miterlimit:10;" d="M 241.4625 114.2 L 241.4625 123.6 " transform="matrix(1.25,0,0,1.25,-116.25,-31.25)"/>
<path style="fill:none;stroke-width:1;stroke-linecap:butt;stroke-linejoin:miter;stroke:rgb(0%,0%,0%);stroke-opacity:1;stroke-miterlimit:10;" d="M 241.4625 127.6 L 241.4625 123.6 M 242.9625 123.6 L 241.4625 127.6 L 239.9625 123.6 " transform="matrix(1.25,0,0,1.25,-116.25,-31.25)"/>
<path style="fill:none;stroke-width:1;stroke-linecap:round;stroke-linejoin:miter;stroke:rgb(0%,0%,0%);stroke-opacity:1;stroke-miterlimit:10;" d="M 169 145.25 L 198.0625 145.25 " transform="matrix(1.25,0,0,1.25,-116.25,-31.25)"/>
<path style="fill:none;stroke-width:1;stroke-linecap:butt;stroke-linejoin:miter;stroke:rgb(0%,0%,0%);stroke-opacity:1;stroke-miterlimit:10;" d="M 202.0625 145.25 L 198.0625 145.25 M 198.0625 143.75 L 202.0625 145.25 L 198.0625 146.75 " transform="matrix(1.25,0,0,1.25,-116.25,-31.25)"/>
<path style=" stroke:none;fill-rule:nonzero;fill:rgb(69.803922%,85.098039%,100%);fill-opacity:1;" d="M 138 41.125 L 231.75 41.125 L 231.75 1.75 L 138 1.75 Z M 138 41.125 "/>
<path style="fill:none;stroke-width:1;stroke-linecap:round;stroke-linejoin:round;stroke:rgb(0%,0%,0%);stroke-opacity:1;stroke-miterlimit:10;" d="M 203.4 26.4 L 278.4 26.4 L 278.4 57.9 L 203.4 57.9 Z M 203.4 26.4 " transform="matrix(1.25,0,0,1.25,-116.25,-31.25)"/>
<path style=" stroke:none;fill-rule:nonzero;fill:rgb(0%,0%,0%);fill-opacity:1;" d="M 182.277344 20.226562 L 181.652344 20.617188 C 182.570312 21.769531 183.292969 22.804688 183.839844 23.742188 L 184.523438 23.273438 C 183.996094 22.394531 183.234375 21.398438 182.277344 20.226562 Z M 174.40625 20.714844 L 174.40625 21.496094 L 175.65625 21.496094 L 175.65625 24.386719 C 175.128906 24.523438 174.621094 24.640625 174.09375 24.71875 L 174.289062 25.5 C 175.597656 25.207031 176.808594 24.835938 177.941406 24.40625 L 177.941406 23.625 C 177.453125 23.820312 176.945312 23.996094 176.4375 24.152344 L 176.4375 21.496094 L 177.726562 21.496094 L 177.726562 20.714844 L 176.4375 20.714844 L 176.4375 18.292969 L 177.882812 18.292969 L 177.882812 17.492188 L 174.230469 17.492188 L 174.230469 18.292969 L 175.65625 18.292969 L 175.65625 20.714844 Z M 178.332031 17.179688 L 178.332031 17.960938 L 181.222656 17.960938 C 180.578125 20.011719 179.445312 21.769531 177.804688 23.234375 L 178.292969 23.859375 C 179.269531 23 180.070312 22.023438 180.714844 20.929688 L 180.714844 26.925781 L 181.515625 26.925781 L 181.515625 19.386719 C 181.710938 18.917969 181.867188 18.449219 182.023438 17.960938 L 184.035156 17.960938 L 184.035156 17.179688 Z M 178.332031 17.179688 "/>
<path style=" stroke:none;fill-rule:nonzero;fill:rgb(0%,0%,0%);fill-opacity:1;" d="M 189.074219 17.472656 L 189.074219 18.15625 L 190.109375 18.15625 C 190.265625 18.507812 190.402344 18.917969 190.519531 19.347656 L 188.742188 19.347656 L 188.742188 20.03125 L 195.5 20.03125 L 195.5 19.347656 L 193.566406 19.347656 C 193.742188 18.957031 193.878906 18.546875 193.996094 18.15625 L 195.167969 18.15625 L 195.167969 17.472656 L 192.472656 17.472656 C 192.375 17.121094 192.296875 16.808594 192.179688 16.515625 L 191.320312 16.652344 C 191.4375 16.90625 191.535156 17.179688 191.652344 17.472656 Z M 192.785156 19.347656 L 191.28125 19.347656 C 191.164062 18.917969 191.046875 18.527344 190.910156 18.15625 L 193.234375 18.15625 C 193.136719 18.546875 192.980469 18.957031 192.785156 19.347656 Z M 189.445312 20.734375 L 189.445312 24.269531 L 190.65625 24.269531 C 190.539062 24.757812 190.304688 25.148438 189.953125 25.441406 C 189.542969 25.773438 188.859375 26.046875 187.921875 26.222656 L 188.234375 26.945312 C 189.308594 26.710938 190.089844 26.359375 190.558594 25.910156 C 190.988281 25.5 191.28125 24.953125 191.417969 24.269531 L 192.511719 24.269531 L 192.511719 25.871094 C 192.511719 26.476562 192.804688 26.789062 193.390625 26.789062 L 194.679688 26.789062 C 194.992188 26.789062 195.226562 26.710938 195.382812 26.535156 C 195.539062 26.359375 195.65625 25.871094 195.714844 25.050781 L 194.992188 24.835938 C 194.972656 25.441406 194.914062 25.792969 194.835938 25.929688 C 194.777344 26.007812 194.679688 26.066406 194.542969 26.066406 L 193.625 26.066406 C 193.410156 26.066406 193.292969 25.949219 193.292969 25.714844 L 193.292969 24.269531 L 194.71875 24.269531 L 194.71875 20.734375 Z M 193.957031 23.605469 L 190.1875 23.605469 L 190.1875 22.765625 L 193.957031 22.765625 Z M 190.1875 22.199219 L 190.1875 21.378906 L 193.957031 21.378906 L 193.957031 22.199219 Z M 188.722656 23.449219 C 188.273438 23.664062 187.824219 23.859375 187.355469 24.035156 L 187.355469 20.148438 L 188.371094 20.148438 L 188.371094 19.367188 L 187.355469 19.367188 L 187.355469 16.691406 L 186.535156 16.691406 L 186.535156 19.367188 L 185.363281 19.367188 L 185.363281 20.148438 L 186.535156 20.148438 L 186.535156 24.308594 C 186.144531 24.425781 185.753906 24.523438 185.363281 24.621094 L 185.578125 25.5 C 186.691406 25.167969 187.746094 24.757812 188.722656 24.269531 Z M 188.722656 23.449219 "/>
<path style="fill:none;stroke-width:1;stroke-linecap:round;stroke-linejoin:miter;stroke:rgb(0%,0%,0%);stroke-opacity:1;stroke-miterlimit:10;" d="M 278.4 42.15 L 288.36875 42.15 C 288.390625 42.15 288.409375 42.15 288.434375 42.153125 L 319.284375 42.559375 C 319.309375 42.559375 319.33125 42.559375 319.35 42.559375 L 351.534375 42.559375 C 354.29375 42.559375 356.534375 44.796875 356.534375 47.559375 L 356.534375 64.090625 " transform="matrix(1.25,0,0,1.25,-116.25,-31.25)"/>
<path style="fill:none;stroke-width:1;stroke-linecap:butt;stroke-linejoin:miter;stroke:rgb(0%,0%,0%);stroke-opacity:1;stroke-miterlimit:10;" d="M 356.534375 68.090625 L 356.534375 64.090625 M 358.034375 64.090625 L 356.534375 68.090625 L 355.034375 64.090625 " transform="matrix(1.25,0,0,1.25,-116.25,-31.25)"/>
<path style="fill:none;stroke-width:1;stroke-linecap:round;stroke-linejoin:miter;stroke:rgb(0%,0%,0%);stroke-opacity:1;stroke-miterlimit:10;" d="M 203.4 42.15 L 193.44375 42.15 C 193.4125 42.15 193.38125 42.15 193.35625 42.15 L 170.69375 41.734375 C 170.6625 41.734375 170.63125 41.734375 170.60625 41.734375 L 149.125 41.734375 C 146.3625 41.734375 144.125 43.971875 144.125 46.734375 L 144.125 64.9 " transform="matrix(1.25,0,0,1.25,-116.25,-31.25)"/>
<path style="fill:none;stroke-width:1;stroke-linecap:butt;stroke-linejoin:miter;stroke:rgb(0%,0%,0%);stroke-opacity:1;stroke-miterlimit:10;" d="M 144.125 68.9 L 144.125 64.9 M 145.625 64.9 L 144.125 68.9 L 142.625 64.9 " transform="matrix(1.25,0,0,1.25,-116.25,-31.25)"/>
<path style="fill:none;stroke-width:1;stroke-linecap:round;stroke-linejoin:miter;stroke:rgb(0%,0%,0%);stroke-opacity:1;stroke-miterlimit:10;" d="M 278.9625 145.25 L 299.3 145.25 " transform="matrix(1.25,0,0,1.25,-116.25,-31.25)"/>
<path style="fill:none;stroke-width:1;stroke-linecap:butt;stroke-linejoin:miter;stroke:rgb(0%,0%,0%);stroke-opacity:1;stroke-miterlimit:10;" d="M 303.3 145.25 L 299.3 145.25 M 299.3 143.75 L 303.3 145.25 L 299.3 146.75 " transform="matrix(1.25,0,0,1.25,-116.25,-31.25)"/>
</g>
</svg>
