<?xml version="1.0" encoding="UTF-8"?>
<svg xmlns="http://www.w3.org/2000/svg" xmlns:xlink="http://www.w3.org/1999/xlink" width="371pt" height="119pt" viewBox="0 0 371 119" version="1.1">
<g id="surface1">
<path style=" stroke:none;fill-rule:nonzero;fill:rgb(100%,100%,100%);fill-opacity:1;" d="M 0.625 79.375 L 94.375 79.375 L 94.375 40 L 0.625 40 Z M 0.625 79.375 "/>
<path style="fill:none;stroke-width:1;stroke-linecap:round;stroke-linejoin:round;stroke:rgb(0%,0%,0%);stroke-opacity:1;stroke-miterlimit:10;" d="M 91.5 164 L 166.5 164 L 166.5 195.5 L 91.5 195.5 Z M 91.5 164 " transform="matrix(1.25,0,0,1.25,-113.75,-165)"/>
<path style=" stroke:none;fill-rule:nonzero;fill:rgb(0%,0%,0%);fill-opacity:1;" d="M 15.566406 55.078125 L 15 55.605469 C 15.761719 56.210938 16.367188 56.777344 16.796875 57.304688 L 17.34375 56.757812 C 16.875 56.191406 16.269531 55.644531 15.566406 55.078125 Z M 14.257812 58.339844 L 14.257812 59.121094 L 15.820312 59.121094 L 15.820312 63.574219 C 15.820312 63.75 15.722656 63.925781 15.566406 64.082031 L 15.878906 64.785156 C 16.679688 64.277344 17.421875 63.691406 18.144531 63.027344 L 17.910156 62.167969 C 17.460938 62.617188 17.011719 62.988281 16.601562 63.339844 L 16.601562 58.339844 Z M 18.242188 59.648438 L 18.242188 60.449219 L 18.867188 60.449219 C 19.179688 61.425781 19.765625 62.304688 20.605469 63.085938 C 19.765625 63.671875 18.730469 64.160156 17.480469 64.53125 L 17.929688 65.214844 C 19.238281 64.824219 20.351562 64.296875 21.25 63.613281 C 22.050781 64.21875 23.027344 64.746094 24.199219 65.214844 L 24.648438 64.53125 C 23.535156 64.121094 22.597656 63.652344 21.835938 63.125 C 22.65625 62.363281 23.242188 61.445312 23.613281 60.390625 L 23.613281 59.648438 Z M 19.628906 60.449219 L 22.8125 60.449219 C 22.441406 61.269531 21.914062 61.992188 21.191406 62.617188 C 20.449219 61.972656 19.921875 61.25 19.628906 60.449219 Z M 19.121094 55.3125 L 19.121094 56.5625 C 19.121094 57.441406 18.613281 58.125 17.636719 58.613281 L 18.183594 59.238281 C 19.335938 58.574219 19.921875 57.65625 19.921875 56.464844 L 19.921875 56.074219 L 22.089844 56.074219 L 22.089844 57.910156 C 22.089844 58.574219 22.441406 58.90625 23.125 58.90625 L 24.375 58.90625 L 24.375 58.164062 L 23.339844 58.164062 C 23.046875 58.164062 22.890625 58.027344 22.890625 57.734375 L 22.890625 55.3125 Z M 19.121094 55.3125 "/>
<path style=" stroke:none;fill-rule:nonzero;fill:rgb(0%,0%,0%);fill-opacity:1;" d="M 29.023438 58.242188 L 29.023438 59.0625 L 32.070312 59.0625 L 32.070312 65.214844 L 32.910156 65.214844 L 32.910156 59.0625 L 35.800781 59.0625 L 35.800781 58.242188 L 32.910156 58.242188 L 32.910156 54.863281 L 32.070312 54.863281 L 32.070312 58.242188 Z M 26.816406 54.980469 L 26.269531 55.527344 C 27.070312 56.132812 27.714844 56.71875 28.203125 57.285156 L 28.75 56.71875 C 28.222656 56.132812 27.578125 55.566406 26.816406 54.980469 Z M 25.507812 58.320312 L 25.507812 59.082031 L 27.167969 59.082031 L 27.167969 63.574219 C 27.167969 63.75 27.070312 63.925781 26.894531 64.042969 L 27.207031 64.785156 C 28.007812 64.257812 28.769531 63.652344 29.472656 62.988281 L 29.257812 62.148438 C 28.789062 62.597656 28.339844 62.988281 27.929688 63.320312 L 27.929688 58.320312 Z M 25.507812 58.320312 "/>
<path style=" stroke:none;fill-rule:nonzero;fill:rgb(0%,0%,0%);fill-opacity:1;" d="M 36.816406 59.53125 L 36.816406 60.332031 L 46.933594 60.332031 L 46.933594 59.53125 Z M 36.816406 59.53125 "/>
<path style=" stroke:none;fill-rule:nonzero;fill:rgb(0%,0%,0%);fill-opacity:1;" d="M 52.714844 58.203125 L 52.714844 65.175781 L 53.535156 65.175781 L 53.535156 58.203125 Z M 52.773438 54.882812 C 51.621094 56.5625 50 57.949219 47.910156 59.023438 L 48.398438 59.746094 C 50.292969 58.789062 51.875 57.421875 53.125 55.644531 C 54.160156 57.265625 55.742188 58.613281 57.851562 59.707031 L 58.339844 58.984375 C 56.054688 57.792969 54.433594 56.425781 53.476562 54.882812 Z M 52.773438 54.882812 "/>
<path style=" stroke:none;fill-rule:nonzero;fill:rgb(0%,0%,0%);fill-opacity:1;" d="M 62.675781 55.800781 L 62.675781 56.523438 L 64.316406 56.523438 L 64.316406 57.363281 L 65.078125 57.363281 L 65.078125 56.523438 L 66.875 56.523438 L 66.875 57.363281 L 67.65625 57.363281 L 67.65625 56.523438 L 69.394531 56.523438 L 69.394531 55.800781 L 67.65625 55.800781 L 67.65625 54.902344 L 66.875 54.902344 L 66.875 55.800781 L 65.078125 55.800781 L 65.078125 54.902344 L 64.316406 54.902344 L 64.316406 55.800781 Z M 65.839844 62.871094 C 66.484375 63.808594 67.539062 64.589844 69.003906 65.214844 L 69.53125 64.570312 C 68.203125 64.101562 67.226562 63.496094 66.5625 62.714844 L 69.414062 62.714844 L 69.414062 61.972656 L 66.171875 61.972656 C 66.25 61.71875 66.308594 61.445312 66.347656 61.132812 L 68.652344 61.132812 L 68.652344 57.714844 L 63.28125 57.714844 L 63.28125 61.132812 L 65.644531 61.132812 C 65.585938 61.425781 65.507812 61.71875 65.429688 61.972656 L 62.460938 61.972656 L 62.460938 62.714844 L 65.078125 62.714844 C 65 62.890625 64.882812 63.027344 64.765625 63.164062 C 64.277344 63.75 63.476562 64.179688 62.34375 64.492188 L 62.636719 65.15625 C 63.945312 64.785156 64.84375 64.296875 65.351562 63.632812 C 65.527344 63.417969 65.703125 63.144531 65.839844 62.871094 Z M 61.582031 59.433594 C 61.875 59.882812 62.246094 60.488281 62.65625 61.230469 L 63.085938 60.585938 C 62.558594 59.824219 62.070312 59.160156 61.582031 58.574219 L 61.582031 57.832031 L 62.773438 57.832031 L 62.773438 57.089844 L 61.582031 57.089844 L 61.582031 54.921875 L 60.820312 54.921875 L 60.820312 57.089844 L 59.511719 57.089844 L 59.511719 57.832031 L 60.820312 57.832031 L 60.820312 57.890625 C 60.488281 59.277344 59.921875 60.488281 59.140625 61.5625 L 59.492188 62.441406 C 60.039062 61.582031 60.46875 60.605469 60.820312 59.550781 L 60.820312 65.15625 L 61.582031 65.15625 Z M 67.929688 60.488281 L 64.003906 60.488281 L 64.003906 59.726562 L 67.929688 59.726562 Z M 64.003906 59.121094 L 64.003906 58.378906 L 67.929688 58.378906 L 67.929688 59.121094 Z M 64.003906 59.121094 "/>
<path style=" stroke:none;fill-rule:nonzero;fill:rgb(0%,0%,0%);fill-opacity:1;" d="M 71.054688 55.371094 L 71.054688 56.09375 L 72.1875 56.09375 L 72.1875 57.792969 L 70.761719 57.792969 L 70.761719 58.535156 L 72.148438 58.535156 C 72.03125 59.453125 71.660156 60.136719 71.035156 60.605469 L 71.640625 61.132812 C 72.382812 60.546875 72.8125 59.6875 72.929688 58.535156 L 74.414062 58.535156 L 74.414062 60.996094 L 75.195312 60.996094 L 75.195312 58.535156 L 76.582031 58.535156 L 76.582031 57.792969 L 75.195312 57.792969 L 75.195312 56.09375 L 76.328125 56.09375 L 76.328125 55.371094 Z M 72.96875 56.09375 L 74.414062 56.09375 L 74.414062 57.792969 L 72.96875 57.792969 Z M 77.246094 55.644531 L 77.246094 59.511719 L 78.027344 59.511719 L 78.027344 55.644531 Z M 71.308594 62.109375 L 71.308594 62.851562 L 75.273438 62.851562 L 75.273438 64.160156 L 70.683594 64.160156 L 70.683594 64.902344 L 80.566406 64.902344 L 80.566406 64.160156 L 76.074219 64.160156 L 76.074219 62.851562 L 79.941406 62.851562 L 79.941406 62.109375 L 76.074219 62.109375 L 76.074219 61.132812 L 75.273438 61.132812 L 75.273438 62.109375 Z M 79.160156 61.113281 C 79.746094 61.113281 80.058594 60.761719 80.058594 60.078125 L 80.058594 55.019531 L 79.277344 55.019531 L 79.277344 59.882812 C 79.277344 60.214844 79.140625 60.390625 78.886719 60.390625 C 78.4375 60.390625 77.96875 60.371094 77.480469 60.332031 L 77.65625 61.113281 Z M 79.160156 61.113281 "/>
<path style=" stroke:none;fill-rule:nonzero;fill:rgb(69.803922%,85.098039%,100%);fill-opacity:1;" d="M 138.75 79.375 L 232.5 79.375 L 232.5 40 L 138.75 40 Z M 138.75 79.375 "/>
<path style="fill:none;stroke-width:1;stroke-linecap:round;stroke-linejoin:round;stroke:rgb(0%,0%,0%);stroke-opacity:1;stroke-miterlimit:10;" d="M 202 164 L 277 164 L 277 195.5 L 202 195.5 Z M 202 164 " transform="matrix(1.25,0,0,1.25,-113.75,-165)"/>
<path style=" stroke:none;fill-rule:nonzero;fill:rgb(0%,0%,0%);fill-opacity:1;" d="M 158.183594 55.742188 L 158.183594 56.464844 L 160.800781 56.464844 L 160.800781 57.285156 L 161.640625 57.285156 L 161.640625 56.464844 L 164.609375 56.464844 L 164.609375 57.285156 L 165.449219 57.285156 L 165.449219 56.464844 L 168.066406 56.464844 L 168.066406 55.742188 L 165.449219 55.742188 L 165.449219 54.824219 L 164.609375 54.824219 L 164.609375 55.742188 L 161.640625 55.742188 L 161.640625 54.824219 L 160.800781 54.824219 L 160.800781 55.742188 Z M 161.328125 57.558594 C 161.035156 57.96875 160.703125 58.320312 160.371094 58.652344 C 160.039062 58.242188 159.628906 57.890625 159.160156 57.597656 L 158.574219 58.105469 C 159.042969 58.378906 159.453125 58.730469 159.804688 59.140625 C 159.277344 59.53125 158.691406 59.863281 158.046875 60.136719 L 158.476562 60.820312 C 159.160156 60.46875 159.746094 60.117188 160.214844 59.785156 C 160.410156 60.097656 160.546875 60.449219 160.644531 60.839844 C 160.058594 61.503906 159.238281 62.089844 158.203125 62.558594 L 158.632812 63.222656 C 159.472656 62.792969 160.195312 62.285156 160.800781 61.660156 C 160.859375 61.972656 160.878906 62.324219 160.878906 62.675781 C 160.859375 63.417969 160.800781 63.90625 160.664062 64.140625 C 160.546875 64.316406 160.351562 64.414062 160.058594 64.414062 C 159.6875 64.414062 159.316406 64.394531 158.964844 64.375 L 159.179688 65.117188 C 159.453125 65.117188 159.804688 65.136719 160.253906 65.136719 C 160.664062 65.136719 160.996094 65.019531 161.210938 64.785156 C 161.484375 64.414062 161.640625 63.730469 161.640625 62.734375 C 161.640625 61.367188 161.367188 60.234375 160.800781 59.296875 C 161.210938 58.925781 161.601562 58.496094 162.011719 57.96875 Z M 162.1875 59.53125 L 162.1875 60.292969 L 164.472656 60.292969 C 164.257812 61.933594 163.4375 63.359375 161.972656 64.589844 L 162.5 65.175781 C 163.75 64.160156 164.609375 62.890625 165.058594 61.367188 C 165.488281 62.910156 166.347656 64.160156 167.65625 65.136719 L 168.183594 64.53125 C 166.777344 63.535156 165.839844 62.109375 165.390625 60.292969 L 167.910156 60.292969 L 167.910156 59.53125 L 165.332031 59.53125 C 165.332031 58.808594 165.351562 58.183594 165.351562 57.65625 L 164.550781 57.65625 C 164.550781 58.085938 164.53125 58.710938 164.511719 59.53125 Z M 166.484375 57.421875 L 165.878906 57.792969 C 166.425781 58.320312 166.855469 58.808594 167.167969 59.257812 L 167.773438 58.828125 C 167.460938 58.417969 167.03125 57.949219 166.484375 57.421875 Z M 166.484375 57.421875 "/>
<path style=" stroke:none;fill-rule:nonzero;fill:rgb(0%,0%,0%);fill-opacity:1;" d="M 174.902344 62.109375 C 174.570312 62.1875 174.238281 62.265625 173.886719 62.34375 L 173.886719 56.074219 L 174.746094 56.074219 L 174.746094 56.699219 L 175.195312 56.699219 C 175.351562 58.59375 175.839844 60.332031 176.679688 61.933594 C 176.074219 62.949219 175.3125 63.808594 174.414062 64.53125 L 174.960938 65.15625 C 175.800781 64.492188 176.523438 63.671875 177.128906 62.734375 C 177.65625 63.574219 178.28125 64.394531 179.023438 65.15625 L 179.570312 64.550781 C 178.769531 63.769531 178.105469 62.910156 177.558594 61.992188 C 178.339844 60.527344 178.847656 58.75 179.101562 56.660156 L 179.101562 55.917969 L 174.746094 55.917969 L 174.746094 55.3125 L 169.394531 55.3125 L 169.394531 56.074219 L 170.273438 56.074219 L 170.273438 63.046875 C 169.941406 63.085938 169.609375 63.144531 169.257812 63.183594 L 169.453125 63.964844 C 170.722656 63.789062 171.914062 63.574219 173.085938 63.339844 L 173.085938 65.195312 L 173.886719 65.195312 L 173.886719 63.144531 C 174.21875 63.066406 174.550781 62.988281 174.902344 62.910156 Z M 175.9375 56.699219 L 178.339844 56.699219 C 178.125 58.378906 177.714844 59.863281 177.109375 61.132812 C 176.464844 59.804688 176.074219 58.320312 175.9375 56.699219 Z M 173.085938 62.539062 C 172.421875 62.675781 171.757812 62.792969 171.074219 62.910156 L 171.074219 60.996094 L 173.085938 60.996094 Z M 171.074219 60.273438 L 171.074219 58.554688 L 173.085938 58.554688 L 173.085938 60.273438 Z M 171.074219 57.8125 L 171.074219 56.074219 L 173.085938 56.074219 L 173.085938 57.8125 Z M 171.074219 57.8125 "/>
<path style=" stroke:none;fill-rule:nonzero;fill:rgb(0%,0%,0%);fill-opacity:1;" d="M 190.058594 54.980469 C 188.964844 55.449219 187.734375 55.722656 186.386719 55.742188 L 186.386719 60.546875 C 186.328125 62.265625 185.957031 63.59375 185.292969 64.570312 L 185.878906 65.175781 C 186.679688 64.023438 187.109375 62.480469 187.167969 60.546875 L 187.167969 59.21875 L 188.828125 59.21875 L 188.828125 65.214844 L 189.628906 65.214844 L 189.628906 59.21875 L 190.800781 59.21875 L 190.800781 58.4375 L 187.167969 58.4375 L 187.167969 56.386719 C 188.378906 56.328125 189.472656 56.09375 190.46875 55.703125 Z M 180.683594 55.859375 L 180.683594 56.601562 L 185.761719 56.601562 L 185.761719 55.859375 L 183.632812 55.859375 C 183.476562 55.449219 183.320312 55.078125 183.144531 54.726562 L 182.324219 54.863281 C 182.5 55.15625 182.675781 55.488281 182.832031 55.859375 Z M 180.566406 58.398438 L 180.566406 59.140625 L 182.851562 59.140625 L 182.851562 60.390625 L 180.761719 60.390625 L 180.761719 61.132812 L 182.851562 61.132812 L 182.851562 64.121094 C 182.851562 64.394531 182.695312 64.53125 182.402344 64.53125 C 182.246094 64.53125 182.089844 64.511719 181.894531 64.472656 L 182.070312 65.234375 L 182.675781 65.234375 C 183.320312 65.234375 183.652344 64.921875 183.652344 64.316406 L 183.652344 61.132812 L 185.644531 61.132812 L 185.644531 60.390625 L 183.652344 60.390625 L 183.652344 59.140625 L 185.820312 59.140625 L 185.820312 58.398438 L 184.550781 58.398438 C 184.765625 58.027344 184.960938 57.578125 185.136719 57.089844 L 184.414062 56.855469 C 184.238281 57.382812 184.042969 57.910156 183.828125 58.398438 L 182.578125 58.398438 C 182.402344 57.792969 182.207031 57.285156 181.992188 56.875 L 181.269531 57.128906 C 181.503906 57.519531 181.699219 57.949219 181.875 58.398438 Z M 181.542969 61.738281 C 181.289062 62.734375 180.917969 63.632812 180.390625 64.453125 L 181.054688 64.863281 C 181.582031 64.023438 181.992188 63.046875 182.285156 61.894531 Z M 184.765625 61.660156 L 184.101562 61.855469 C 184.414062 62.519531 184.667969 63.222656 184.882812 63.925781 L 185.566406 63.671875 C 185.371094 63.066406 185.117188 62.402344 184.765625 61.660156 Z M 184.765625 61.660156 "/>
<path style=" stroke:none;fill-rule:nonzero;fill:rgb(0%,0%,0%);fill-opacity:1;" d="M 198.652344 57.363281 L 200.3125 57.363281 C 200.273438 58.886719 200.039062 60.214844 199.589844 61.347656 C 199.140625 60.410156 198.789062 59.277344 198.515625 57.949219 Z M 199.21875 62.167969 C 198.710938 63.125 198.027344 63.886719 197.148438 64.492188 L 197.558594 65.175781 C 198.398438 64.570312 199.101562 63.808594 199.648438 62.910156 C 200.195312 63.867188 200.878906 64.628906 201.660156 65.195312 L 202.109375 64.53125 C 201.289062 63.964844 200.605469 63.203125 200.019531 62.1875 C 200.664062 60.859375 200.996094 59.238281 201.054688 57.363281 L 201.796875 57.363281 L 201.796875 56.601562 L 198.828125 56.601562 C 198.90625 56.09375 199.003906 55.566406 199.0625 54.980469 L 198.28125 54.84375 C 198.046875 56.992188 197.597656 58.691406 196.933594 59.941406 L 197.441406 60.566406 C 197.675781 60.15625 197.910156 59.707031 198.105469 59.179688 C 198.417969 60.3125 198.789062 61.289062 199.21875 62.167969 Z M 193.886719 60.097656 C 193.808594 60.332031 193.730469 60.566406 193.632812 60.820312 L 191.972656 60.820312 L 191.972656 61.523438 L 193.300781 61.523438 C 193.085938 61.972656 192.832031 62.421875 192.539062 62.929688 C 193.085938 63.125 193.59375 63.339844 194.101562 63.554688 C 193.4375 63.925781 192.636719 64.238281 191.71875 64.472656 L 192.109375 65.15625 C 193.222656 64.84375 194.160156 64.414062 194.902344 63.90625 C 195.566406 64.199219 196.152344 64.492188 196.640625 64.785156 L 197.070312 64.160156 C 196.582031 63.886719 196.074219 63.652344 195.527344 63.398438 C 196.113281 62.851562 196.523438 62.226562 196.777344 61.484375 L 196.777344 60.820312 L 194.414062 60.820312 C 194.492188 60.605469 194.570312 60.410156 194.648438 60.195312 Z M 194.785156 63.085938 C 194.375 62.910156 193.945312 62.753906 193.496094 62.597656 C 193.730469 62.265625 193.925781 61.894531 194.101562 61.523438 L 196.035156 61.523438 C 195.78125 62.109375 195.351562 62.636719 194.785156 63.085938 Z M 192.871094 55.078125 L 192.226562 55.292969 C 192.5 55.722656 192.753906 56.210938 192.988281 56.757812 L 193.574219 56.484375 C 193.359375 55.996094 193.144531 55.527344 192.871094 55.078125 Z M 196.289062 55.058594 C 196.09375 55.527344 195.800781 55.996094 195.429688 56.484375 L 196.015625 56.777344 C 196.367188 56.308594 196.640625 55.820312 196.875 55.3125 Z M 192.011719 57.03125 L 192.011719 57.734375 L 193.59375 57.734375 C 193.261719 58.359375 192.65625 58.925781 191.796875 59.433594 L 192.1875 60.078125 C 193.144531 59.433594 193.828125 58.671875 194.199219 57.773438 L 194.199219 59.902344 L 194.960938 59.902344 L 194.960938 58.457031 C 195.351562 58.710938 195.839844 59.082031 196.40625 59.53125 L 196.816406 58.90625 C 196.191406 58.515625 195.566406 58.164062 194.960938 57.871094 L 194.960938 57.734375 L 196.992188 57.734375 L 196.992188 57.03125 L 194.960938 57.03125 L 194.960938 54.882812 L 194.199219 54.882812 L 194.199219 57.03125 Z M 192.011719 57.03125 "/>
<path style=" stroke:none;fill-rule:nonzero;fill:rgb(0%,0%,0%);fill-opacity:1;" d="M 204.335938 65.078125 C 204.980469 65.078125 205.292969 64.746094 205.292969 64.101562 L 205.292969 60.820312 C 205.644531 60.644531 205.996094 60.488281 206.328125 60.3125 L 206.328125 59.511719 C 205.996094 59.707031 205.644531 59.863281 205.292969 60.019531 L 205.292969 57.8125 L 206.367188 57.8125 L 206.367188 57.03125 L 205.292969 57.03125 L 205.292969 54.902344 L 204.511719 54.902344 L 204.511719 57.03125 L 203.144531 57.03125 L 203.144531 57.8125 L 204.511719 57.8125 L 204.511719 60.351562 C 204.003906 60.527344 203.496094 60.683594 202.96875 60.820312 L 203.183594 61.601562 C 203.613281 61.464844 204.042969 61.308594 204.511719 61.132812 L 204.511719 63.886719 C 204.511719 64.199219 204.355469 64.375 204.082031 64.375 C 203.808594 64.375 203.515625 64.355469 203.222656 64.316406 L 203.398438 65.078125 Z M 207.714844 60.117188 L 210 60.117188 L 210 61.503906 L 208.125 61.503906 L 208.125 65.195312 L 208.886719 65.195312 L 208.886719 64.628906 L 211.933594 64.628906 L 211.933594 65.195312 L 212.675781 65.195312 L 212.675781 61.503906 L 210.800781 61.503906 L 210.800781 60.117188 L 213.203125 60.117188 L 213.203125 59.375 L 210.800781 59.375 L 210.800781 58.046875 L 212.910156 58.046875 L 212.910156 55.3125 L 206.972656 55.3125 L 206.972656 58.847656 C 206.972656 61.210938 206.5625 63.144531 205.761719 64.628906 L 206.386719 65.195312 C 207.128906 63.730469 207.578125 62.03125 207.714844 60.117188 Z M 210 58.046875 L 210 59.375 L 207.753906 59.375 C 207.753906 59.199219 207.773438 59.023438 207.773438 58.847656 L 207.773438 58.046875 Z M 208.886719 63.925781 L 208.886719 62.226562 L 211.933594 62.226562 L 211.933594 63.925781 Z M 212.109375 56.074219 L 212.109375 57.324219 L 207.773438 57.324219 L 207.773438 56.074219 Z M 212.109375 56.074219 "/>
<path style=" stroke:none;fill-rule:nonzero;fill:rgb(40%,74.901961%,100%);fill-opacity:1;" d="M 276.875 117.578125 L 370.625 117.578125 L 370.625 78.203125 L 276.875 78.203125 Z M 276.875 117.578125 "/>
<path style="fill:none;stroke-width:1;stroke-linecap:round;stroke-linejoin:round;stroke:rgb(0%,0%,0%);stroke-opacity:1;stroke-miterlimit:10;" d="M 312.5 194.5625 L 387.5 194.5625 L 387.5 226.0625 L 312.5 226.0625 Z M 312.5 194.5625 " transform="matrix(1.25,0,0,1.25,-113.75,-165)"/>
<path style=" stroke:none;fill-rule:nonzero;fill:rgb(0%,0%,0%);fill-opacity:1;" d="M 290.683594 95.273438 L 290.683594 96.054688 L 292.050781 96.054688 C 291.71875 97.539062 291.152344 98.828125 290.351562 99.980469 L 290.703125 100.878906 C 291.269531 99.941406 291.71875 98.945312 292.089844 97.8125 L 292.089844 103.339844 L 292.871094 103.339844 L 292.871094 97.421875 C 293.144531 97.832031 293.4375 98.359375 293.808594 99.003906 L 294.257812 98.320312 C 293.789062 97.695312 293.320312 97.128906 292.871094 96.621094 L 292.871094 96.054688 L 294.042969 96.054688 L 294.042969 95.273438 L 292.871094 95.273438 L 292.871094 93.085938 L 292.089844 93.085938 L 292.089844 95.273438 Z M 295.683594 96.367188 L 295.683594 97.070312 L 299.121094 97.070312 L 299.121094 96.386719 C 299.492188 96.777344 299.941406 97.148438 300.410156 97.5 L 300.859375 96.816406 C 299.375 95.742188 298.339844 94.511719 297.734375 93.105469 L 296.992188 93.105469 C 296.269531 94.628906 295.234375 95.878906 293.90625 96.835938 L 294.355469 97.539062 C 294.824219 97.1875 295.273438 96.816406 295.683594 96.367188 Z M 299.0625 96.328125 L 295.722656 96.328125 C 296.328125 95.664062 296.875 94.84375 297.363281 93.886719 C 297.792969 94.804688 298.339844 95.605469 299.0625 96.328125 Z M 294.179688 102.265625 L 294.179688 103.046875 L 300.625 103.046875 L 300.625 102.265625 L 298.867188 102.265625 C 299.335938 101.035156 299.746094 99.628906 300.058594 98.027344 L 299.277344 97.832031 C 298.925781 99.589844 298.535156 101.054688 298.066406 102.265625 Z M 295.429688 98.144531 L 294.726562 98.378906 C 295.058594 99.414062 295.3125 100.46875 295.546875 101.601562 L 296.25 101.40625 C 296.015625 100.175781 295.742188 99.082031 295.429688 98.144531 Z M 297.167969 97.734375 L 296.464844 97.949219 C 296.757812 98.945312 297.011719 99.980469 297.207031 101.054688 L 297.949219 100.878906 C 297.714844 99.6875 297.460938 98.652344 297.167969 97.734375 Z M 297.167969 97.734375 "/>
<path style=" stroke:none;fill-rule:nonzero;fill:rgb(0%,0%,0%);fill-opacity:1;" d="M 303.535156 97.285156 L 303.535156 101.425781 L 310.253906 101.425781 L 310.253906 97.285156 Z M 309.472656 100.722656 L 304.316406 100.722656 L 304.316406 99.726562 L 309.472656 99.726562 Z M 304.316406 99.042969 L 304.316406 98.007812 L 309.472656 98.007812 L 309.472656 99.042969 Z M 302.265625 94.082031 L 302.265625 94.824219 L 305.742188 94.824219 C 304.863281 95.625 303.535156 96.289062 301.738281 96.796875 L 302.167969 97.519531 C 304.121094 96.816406 305.566406 95.917969 306.445312 94.824219 L 306.503906 94.824219 L 306.503906 96.933594 L 307.285156 96.933594 L 307.285156 94.824219 L 307.363281 94.824219 C 308.183594 95.9375 309.628906 96.816406 311.640625 97.5 L 311.992188 96.777344 C 310.214844 96.308594 308.90625 95.644531 308.066406 94.824219 L 311.523438 94.824219 L 311.523438 94.082031 L 307.285156 94.082031 L 307.285156 93.046875 L 306.503906 93.046875 L 306.503906 94.082031 Z M 302.050781 102.304688 L 302.050781 103.066406 L 311.71875 103.066406 L 311.71875 102.304688 Z M 302.050781 102.304688 "/>
<path style=" stroke:none;fill-rule:nonzero;fill:rgb(0%,0%,0%);fill-opacity:1;" d="M 314.746094 93.457031 L 314.746094 97.363281 L 321.582031 97.363281 L 321.582031 93.457031 Z M 320.800781 96.679688 L 315.546875 96.679688 L 315.546875 95.742188 L 320.800781 95.742188 Z M 315.546875 95.097656 L 315.546875 94.160156 L 320.800781 94.160156 L 320.800781 95.097656 Z M 317.851562 98.945312 L 317.851562 102.304688 C 317.617188 102.246094 317.402344 102.207031 317.226562 102.148438 C 316.640625 101.933594 316.09375 101.425781 315.625 100.644531 C 315.78125 100.273438 315.898438 99.882812 316.015625 99.472656 L 315.253906 99.335938 C 314.882812 100.742188 314.160156 101.855469 313.125 102.695312 L 313.652344 103.359375 C 314.335938 102.8125 314.902344 102.128906 315.332031 101.289062 C 315.78125 102.03125 316.308594 102.519531 316.875 102.773438 C 317.539062 103.066406 318.808594 103.203125 320.664062 103.203125 C 321.289062 103.222656 322.011719 103.242188 322.832031 103.242188 L 323.046875 102.460938 C 322.382812 102.5 321.5625 102.5 320.605469 102.5 C 319.863281 102.5 319.199219 102.460938 318.671875 102.421875 L 318.671875 100.917969 L 321.914062 100.917969 L 321.914062 100.214844 L 318.671875 100.214844 L 318.671875 98.945312 L 323.105469 98.945312 L 323.105469 98.183594 L 313.144531 98.183594 L 313.144531 98.945312 Z M 317.851562 98.945312 "/>
<path style=" stroke:none;fill-rule:nonzero;fill:rgb(0%,0%,0%);fill-opacity:1;" d="M 324.84375 93.59375 L 324.84375 94.394531 L 329.433594 94.394531 C 328.4375 95.625 326.71875 96.679688 324.316406 97.558594 L 324.824219 98.222656 C 326.523438 97.539062 327.910156 96.757812 328.964844 95.878906 L 328.964844 98.828125 L 329.785156 98.828125 L 329.785156 95.117188 C 329.980469 94.882812 330.175781 94.628906 330.371094 94.394531 L 333.945312 94.394531 L 333.945312 93.59375 Z M 333.105469 99.21875 L 325.664062 99.21875 L 325.664062 103.339844 L 326.484375 103.339844 L 326.484375 102.8125 L 332.285156 102.8125 L 332.285156 103.339844 L 333.105469 103.339844 Z M 326.484375 102.03125 L 326.484375 100.019531 L 332.285156 100.019531 L 332.285156 102.03125 Z M 330.957031 95.390625 L 330.429688 95.917969 C 331.835938 96.757812 332.949219 97.558594 333.769531 98.300781 L 334.355469 97.714844 C 333.4375 96.933594 332.304688 96.152344 330.957031 95.390625 Z M 330.957031 95.390625 "/>
<path style=" stroke:none;fill-rule:nonzero;fill:rgb(0%,0%,0%);fill-opacity:1;" d="M 336.074219 96.992188 L 336.074219 100.625 L 338.613281 100.625 L 338.613281 96.757812 L 336.230469 96.757812 C 336.582031 96.25 336.894531 95.664062 337.128906 95.039062 L 339.414062 95.039062 C 339.394531 98.671875 339.335938 100.839844 339.277344 101.542969 C 339.199219 102.226562 338.90625 102.578125 338.417969 102.578125 C 338.125 102.578125 337.753906 102.539062 337.34375 102.519531 L 337.539062 103.242188 C 338.007812 103.261719 338.320312 103.28125 338.515625 103.28125 C 339.414062 103.28125 339.902344 102.8125 340 101.855469 C 340.117188 100.898438 340.15625 98.359375 340.15625 94.257812 L 337.402344 94.257812 C 337.5 93.925781 337.597656 93.554688 337.675781 93.183594 L 336.875 93.066406 C 336.640625 94.492188 336.132812 95.683594 335.410156 96.660156 L 335.859375 97.265625 Z M 337.929688 99.921875 L 336.757812 99.921875 L 336.757812 97.480469 L 337.929688 97.480469 Z M 343.671875 97.382812 C 343.066406 98.535156 341.992188 99.355469 340.46875 99.84375 L 340.898438 100.507812 C 341.796875 100.175781 342.578125 99.746094 343.183594 99.199219 L 344.921875 99.199219 C 344.648438 99.960938 344.179688 100.625 343.535156 101.191406 C 343.203125 100.820312 342.871094 100.46875 342.5 100.15625 L 341.933594 100.585938 C 342.285156 100.878906 342.636719 101.210938 342.988281 101.621094 C 342.285156 102.070312 341.425781 102.441406 340.390625 102.734375 L 340.761719 103.4375 C 343.496094 102.597656 345.15625 101.171875 345.703125 99.179688 L 345.703125 98.535156 L 343.808594 98.535156 C 344.003906 98.28125 344.179688 97.988281 344.335938 97.675781 Z M 342.675781 93.046875 C 342.304688 93.945312 341.5625 94.726562 340.488281 95.351562 L 340.957031 95.957031 C 341.542969 95.585938 342.050781 95.195312 342.460938 94.765625 L 344.375 94.765625 C 344.082031 95.390625 343.632812 95.957031 343.085938 96.425781 C 342.871094 96.152344 342.578125 95.859375 342.207031 95.585938 L 341.679688 95.996094 C 341.933594 96.171875 342.226562 96.445312 342.558594 96.816406 C 341.992188 97.1875 341.289062 97.480469 340.488281 97.714844 L 340.898438 98.320312 C 343.183594 97.617188 344.589844 96.40625 345.136719 94.726562 L 345.136719 94.0625 L 343.007812 94.0625 C 343.183594 93.789062 343.339844 93.496094 343.457031 93.203125 Z M 342.675781 93.046875 "/>
<path style=" stroke:none;fill-rule:nonzero;fill:rgb(0%,0%,0%);fill-opacity:1;" d="M 348.652344 92.949219 C 348.515625 93.730469 348.378906 94.472656 348.222656 95.214844 L 346.875 95.214844 L 346.875 95.996094 L 348.066406 95.996094 C 347.792969 97.148438 347.480469 98.222656 347.148438 99.199219 C 347.773438 99.667969 348.359375 100.097656 348.867188 100.527344 C 348.339844 101.40625 347.65625 102.148438 346.796875 102.753906 L 347.34375 103.4375 C 348.222656 102.773438 348.945312 101.972656 349.492188 101.035156 C 350.058594 101.503906 350.546875 101.933594 350.9375 102.34375 L 351.484375 101.699219 C 351.074219 101.289062 350.527344 100.839844 349.882812 100.332031 C 350.507812 99.023438 350.878906 97.460938 350.976562 95.683594 L 350.976562 95.214844 L 349.042969 95.214844 C 349.179688 94.550781 349.316406 93.808594 349.453125 93.027344 Z M 349.238281 99.84375 C 348.867188 99.570312 348.457031 99.277344 348.027344 98.964844 C 348.320312 98.183594 348.59375 97.1875 348.867188 95.996094 L 350.195312 95.996094 C 350.078125 97.441406 349.765625 98.730469 349.238281 99.84375 Z M 351.367188 97.792969 L 351.367188 98.59375 L 353.90625 98.59375 L 353.90625 101.933594 C 353.90625 102.324219 353.769531 102.519531 353.515625 102.519531 C 352.96875 102.519531 352.480469 102.5 352.011719 102.5 L 352.226562 103.261719 L 353.847656 103.261719 C 354.433594 103.261719 354.726562 102.910156 354.726562 102.1875 L 354.726562 98.59375 L 357.03125 98.59375 L 357.03125 97.792969 L 354.726562 97.792969 L 354.726562 96.621094 C 355.410156 95.957031 356.035156 95.214844 356.5625 94.453125 L 356.5625 93.652344 L 351.699219 93.652344 L 351.699219 94.453125 L 355.644531 94.453125 C 355.097656 95.214844 354.511719 95.859375 353.90625 96.386719 L 353.90625 97.792969 Z M 351.367188 97.792969 "/>
<path style=" stroke:none;fill-rule:nonzero;fill:rgb(100%,100%,100%);fill-opacity:1;" d="M 276.875 41.171875 L 370.625 41.171875 L 370.625 1.796875 L 276.875 1.796875 Z M 276.875 41.171875 "/>
<path style="fill:none;stroke-width:1;stroke-linecap:round;stroke-linejoin:round;stroke:rgb(0%,0%,0%);stroke-opacity:1;stroke-miterlimit:10;" d="M 312.5 133.4375 L 387.5 133.4375 L 387.5 164.9375 L 312.5 164.9375 Z M 312.5 133.4375 " transform="matrix(1.25,0,0,1.25,-113.75,-165)"/>
<path style=" stroke:none;fill-rule:nonzero;fill:rgb(0%,0%,0%);fill-opacity:1;" d="M 302.050781 17.109375 L 302.050781 17.871094 L 306.464844 17.871094 L 306.464844 18.847656 L 303.027344 18.847656 L 303.027344 23.300781 L 306.328125 23.300781 C 306.210938 23.886719 306.015625 24.375 305.742188 24.765625 C 305.117188 24.433594 304.53125 24.042969 304.003906 23.613281 L 303.378906 24.042969 C 303.925781 24.511719 304.53125 24.921875 305.195312 25.292969 C 304.472656 25.800781 303.320312 26.113281 301.757812 26.25 L 302.109375 26.992188 C 303.886719 26.777344 305.195312 26.347656 305.976562 25.683594 C 307.65625 26.445312 309.628906 26.875 311.875 26.972656 L 312.089844 26.191406 C 309.921875 26.132812 308.046875 25.761719 306.484375 25.097656 C 306.796875 24.648438 307.011719 24.042969 307.148438 23.300781 L 310.761719 23.300781 L 310.761719 18.847656 L 307.285156 18.847656 L 307.285156 17.871094 L 311.699219 17.871094 L 311.699219 17.109375 Z M 309.960938 22.597656 L 307.246094 22.597656 L 307.285156 21.796875 L 307.285156 21.40625 L 309.960938 21.40625 Z M 306.445312 22.597656 L 303.828125 22.597656 L 303.828125 21.40625 L 306.464844 21.40625 L 306.464844 21.796875 C 306.464844 22.070312 306.464844 22.34375 306.445312 22.597656 Z M 303.828125 20.722656 L 303.828125 19.550781 L 306.464844 19.550781 L 306.464844 20.722656 Z M 307.285156 19.550781 L 309.960938 19.550781 L 309.960938 20.722656 L 307.285156 20.722656 Z M 307.285156 19.550781 "/>
<path style=" stroke:none;fill-rule:nonzero;fill:rgb(0%,0%,0%);fill-opacity:1;" d="M 322.558594 16.777344 C 321.464844 17.246094 320.234375 17.519531 318.886719 17.539062 L 318.886719 22.34375 C 318.828125 24.0625 318.457031 25.390625 317.792969 26.367188 L 318.378906 26.972656 C 319.179688 25.820312 319.609375 24.277344 319.667969 22.34375 L 319.667969 21.015625 L 321.328125 21.015625 L 321.328125 27.011719 L 322.128906 27.011719 L 322.128906 21.015625 L 323.300781 21.015625 L 323.300781 20.234375 L 319.667969 20.234375 L 319.667969 18.183594 C 320.878906 18.125 321.972656 17.890625 322.96875 17.5 Z M 313.183594 17.65625 L 313.183594 18.398438 L 318.261719 18.398438 L 318.261719 17.65625 L 316.132812 17.65625 C 315.976562 17.246094 315.820312 16.875 315.644531 16.523438 L 314.824219 16.660156 C 315 16.953125 315.175781 17.285156 315.332031 17.65625 Z M 313.066406 20.195312 L 313.066406 20.9375 L 315.351562 20.9375 L 315.351562 22.1875 L 313.261719 22.1875 L 313.261719 22.929688 L 315.351562 22.929688 L 315.351562 25.917969 C 315.351562 26.191406 315.195312 26.328125 314.902344 26.328125 C 314.746094 26.328125 314.589844 26.308594 314.394531 26.269531 L 314.570312 27.03125 L 315.175781 27.03125 C 315.820312 27.03125 316.152344 26.71875 316.152344 26.113281 L 316.152344 22.929688 L 318.144531 22.929688 L 318.144531 22.1875 L 316.152344 22.1875 L 316.152344 20.9375 L 318.320312 20.9375 L 318.320312 20.195312 L 317.050781 20.195312 C 317.265625 19.824219 317.460938 19.375 317.636719 18.886719 L 316.914062 18.652344 C 316.738281 19.179688 316.542969 19.707031 316.328125 20.195312 L 315.078125 20.195312 C 314.902344 19.589844 314.707031 19.082031 314.492188 18.671875 L 313.769531 18.925781 C 314.003906 19.316406 314.199219 19.746094 314.375 20.195312 Z M 314.042969 23.535156 C 313.789062 24.53125 313.417969 25.429688 312.890625 26.25 L 313.554688 26.660156 C 314.082031 25.820312 314.492188 24.84375 314.785156 23.691406 Z M 317.265625 23.457031 L 316.601562 23.652344 C 316.914062 24.316406 317.167969 25.019531 317.382812 25.722656 L 318.066406 25.46875 C 317.871094 24.863281 317.617188 24.199219 317.265625 23.457031 Z M 317.265625 23.457031 "/>
<path style=" stroke:none;fill-rule:nonzero;fill:rgb(0%,0%,0%);fill-opacity:1;" d="M 327.675781 17.597656 L 327.675781 18.320312 L 329.316406 18.320312 L 329.316406 19.160156 L 330.078125 19.160156 L 330.078125 18.320312 L 331.875 18.320312 L 331.875 19.160156 L 332.65625 19.160156 L 332.65625 18.320312 L 334.394531 18.320312 L 334.394531 17.597656 L 332.65625 17.597656 L 332.65625 16.699219 L 331.875 16.699219 L 331.875 17.597656 L 330.078125 17.597656 L 330.078125 16.699219 L 329.316406 16.699219 L 329.316406 17.597656 Z M 330.839844 24.667969 C 331.484375 25.605469 332.539062 26.386719 334.003906 27.011719 L 334.53125 26.367188 C 333.203125 25.898438 332.226562 25.292969 331.5625 24.511719 L 334.414062 24.511719 L 334.414062 23.769531 L 331.171875 23.769531 C 331.25 23.515625 331.308594 23.242188 331.347656 22.929688 L 333.652344 22.929688 L 333.652344 19.511719 L 328.28125 19.511719 L 328.28125 22.929688 L 330.644531 22.929688 C 330.585938 23.222656 330.507812 23.515625 330.429688 23.769531 L 327.460938 23.769531 L 327.460938 24.511719 L 330.078125 24.511719 C 330 24.6875 329.882812 24.824219 329.765625 24.960938 C 329.277344 25.546875 328.476562 25.976562 327.34375 26.289062 L 327.636719 26.953125 C 328.945312 26.582031 329.84375 26.09375 330.351562 25.429688 C 330.527344 25.214844 330.703125 24.941406 330.839844 24.667969 Z M 326.582031 21.230469 C 326.875 21.679688 327.246094 22.285156 327.65625 23.027344 L 328.085938 22.382812 C 327.558594 21.621094 327.070312 20.957031 326.582031 20.371094 L 326.582031 19.628906 L 327.773438 19.628906 L 327.773438 18.886719 L 326.582031 18.886719 L 326.582031 16.71875 L 325.820312 16.71875 L 325.820312 18.886719 L 324.511719 18.886719 L 324.511719 19.628906 L 325.820312 19.628906 L 325.820312 19.6875 C 325.488281 21.074219 324.921875 22.285156 324.140625 23.359375 L 324.492188 24.238281 C 325.039062 23.378906 325.46875 22.402344 325.820312 21.347656 L 325.820312 26.953125 L 326.582031 26.953125 Z M 332.929688 22.285156 L 329.003906 22.285156 L 329.003906 21.523438 L 332.929688 21.523438 Z M 329.003906 20.917969 L 329.003906 20.175781 L 332.929688 20.175781 L 332.929688 20.917969 Z M 329.003906 20.917969 "/>
<path style=" stroke:none;fill-rule:nonzero;fill:rgb(0%,0%,0%);fill-opacity:1;" d="M 336.054688 17.167969 L 336.054688 17.890625 L 337.1875 17.890625 L 337.1875 19.589844 L 335.761719 19.589844 L 335.761719 20.332031 L 337.148438 20.332031 C 337.03125 21.25 336.660156 21.933594 336.035156 22.402344 L 336.640625 22.929688 C 337.382812 22.34375 337.8125 21.484375 337.929688 20.332031 L 339.414062 20.332031 L 339.414062 22.792969 L 340.195312 22.792969 L 340.195312 20.332031 L 341.582031 20.332031 L 341.582031 19.589844 L 340.195312 19.589844 L 340.195312 17.890625 L 341.328125 17.890625 L 341.328125 17.167969 Z M 337.96875 17.890625 L 339.414062 17.890625 L 339.414062 19.589844 L 337.96875 19.589844 Z M 342.246094 17.441406 L 342.246094 21.308594 L 343.027344 21.308594 L 343.027344 17.441406 Z M 336.308594 23.90625 L 336.308594 24.648438 L 340.273438 24.648438 L 340.273438 25.957031 L 335.683594 25.957031 L 335.683594 26.699219 L 345.566406 26.699219 L 345.566406 25.957031 L 341.074219 25.957031 L 341.074219 24.648438 L 344.941406 24.648438 L 344.941406 23.90625 L 341.074219 23.90625 L 341.074219 22.929688 L 340.273438 22.929688 L 340.273438 23.90625 Z M 344.160156 22.910156 C 344.746094 22.910156 345.058594 22.558594 345.058594 21.875 L 345.058594 16.816406 L 344.277344 16.816406 L 344.277344 21.679688 C 344.277344 22.011719 344.140625 22.1875 343.886719 22.1875 C 343.4375 22.1875 342.96875 22.167969 342.480469 22.128906 L 342.65625 22.910156 Z M 344.160156 22.910156 "/>
<path style="fill:none;stroke-width:1;stroke-linecap:round;stroke-linejoin:miter;stroke:rgb(0%,0%,0%);stroke-opacity:1;stroke-miterlimit:10;" d="M 167.5 179.5 L 196.1 179.596875 " transform="matrix(1.25,0,0,1.25,-113.75,-165)"/>
<path style="fill:none;stroke-width:1;stroke-linecap:butt;stroke-linejoin:miter;stroke:rgb(0%,0%,0%);stroke-opacity:1;stroke-miterlimit:10;" d="M 200.1 179.6125 L 196.1 179.596875 M 196.10625 178.096875 L 200.1 179.6125 L 196.09375 181.096875 " transform="matrix(1.25,0,0,1.25,-113.75,-165)"/>
<path style="fill:none;stroke-width:1;stroke-linecap:round;stroke-linejoin:miter;stroke:rgb(0%,0%,0%);stroke-opacity:1;stroke-miterlimit:10;" d="M 239.5 164 L 239.5 154.45 C 239.5 151.6875 241.7375 149.45 244.5 149.45 L 269.85 149.45 C 269.871875 149.45 269.8875 149.45 269.903125 149.45 L 296.575 149.1875 C 296.59375 149.1875 296.609375 149.1875 296.625 149.1875 L 306.6 149.1875 " transform="matrix(1.25,0,0,1.25,-113.75,-165)"/>
<path style="fill:none;stroke-width:1;stroke-linecap:butt;stroke-linejoin:miter;stroke:rgb(0%,0%,0%);stroke-opacity:1;stroke-miterlimit:10;" d="M 310.6 149.1875 L 306.6 149.1875 M 306.6 147.6875 L 310.6 149.1875 L 306.6 150.6875 " transform="matrix(1.25,0,0,1.25,-113.75,-165)"/>
<path style="fill:none;stroke-width:1;stroke-linecap:round;stroke-linejoin:miter;stroke:rgb(0%,0%,0%);stroke-opacity:1;stroke-miterlimit:10;" d="M 350 164.9375 L 350 188.6625 " transform="matrix(1.25,0,0,1.25,-113.75,-165)"/>
<path style="fill:none;stroke-width:1;stroke-linecap:butt;stroke-linejoin:miter;stroke:rgb(0%,0%,0%);stroke-opacity:1;stroke-miterlimit:10;" d="M 350 192.6625 L 350 188.6625 M 351.5 188.6625 L 350 192.6625 L 348.5 188.6625 " transform="matrix(1.25,0,0,1.25,-113.75,-165)"/>
<path style="fill:none;stroke-width:1;stroke-linecap:round;stroke-linejoin:miter;stroke:rgb(0%,0%,0%);stroke-opacity:1;stroke-miterlimit:10;" d="M 312.5 210.3125 L 302.515625 210.3125 C 302.503125 210.3125 302.496875 210.3125 302.484375 210.3125 L 260.20625 210.565625 C 260.2 210.565625 260.1875 210.565625 260.18125 210.565625 L 244.5 210.565625 C 241.7375 210.565625 239.5 208.328125 239.5 205.565625 L 239.5 201.4 " transform="matrix(1.25,0,0,1.25,-113.75,-165)"/>
<path style="fill:none;stroke-width:1;stroke-linecap:butt;stroke-linejoin:miter;stroke:rgb(0%,0%,0%);stroke-opacity:1;stroke-miterlimit:10;" d="M 239.5 197.4 L 239.5 201.4 M 238 201.4 L 239.5 197.4 L 241 201.4 " transform="matrix(1.25,0,0,1.25,-113.75,-165)"/>
</g>
</svg>
