<?xml version="1.0" encoding="UTF-8"?>
<svg xmlns="http://www.w3.org/2000/svg" xmlns:xlink="http://www.w3.org/1999/xlink" width="359pt" height="161pt" viewBox="0 0 359 161" version="1.1">
<g id="surface1">
<path style=" stroke:none;fill-rule:nonzero;fill:rgb(100%,100%,100%);fill-opacity:1;" d="M 0.75 100 L 94.5 100 L 94.5 60.625 L 0.75 60.625 Z M 0.75 100 "/>
<path style="fill:none;stroke-width:1;stroke-linecap:round;stroke-linejoin:round;stroke:rgb(0%,0%,0%);stroke-opacity:1;stroke-miterlimit:10;" d="M 96.6 136.5 L 171.6 136.5 L 171.6 168 L 96.6 168 Z M 96.6 136.5 " transform="matrix(1.25,0,0,1.25,-120,-110)"/>
<path style=" stroke:none;fill-rule:nonzero;fill:rgb(0%,0%,0%);fill-opacity:1;" d="M 32.839844 77.03125 L 33.972656 77.03125 C 33.953125 77.421875 33.914062 77.773438 33.855469 78.125 L 31.394531 78.125 L 31.394531 78.867188 L 33.660156 78.867188 L 33.542969 79.140625 C 33.171875 79.902344 32.410156 80.546875 31.238281 81.074219 L 31.765625 81.738281 C 32.878906 81.210938 33.679688 80.566406 34.128906 79.765625 C 34.890625 80.214844 35.496094 80.644531 35.964844 81.074219 L 36.550781 80.507812 C 35.964844 80.058594 35.242188 79.609375 34.382812 79.179688 C 34.402344 79.082031 34.441406 78.984375 34.480469 78.867188 L 36.765625 78.867188 L 36.765625 78.125 L 34.636719 78.125 C 34.695312 77.792969 34.714844 77.421875 34.734375 77.03125 L 36.433594 77.03125 L 36.433594 76.308594 L 33.230469 76.308594 C 33.328125 76.09375 33.425781 75.839844 33.523438 75.566406 L 32.800781 75.410156 C 32.429688 76.308594 31.980469 77.011719 31.433594 77.519531 L 31.921875 78.125 C 32.253906 77.8125 32.566406 77.460938 32.839844 77.03125 Z M 37.234375 76.269531 L 37.234375 80.371094 L 40.925781 80.371094 L 40.925781 76.269531 Z M 40.144531 79.667969 L 38.015625 79.667969 L 38.015625 76.972656 L 40.144531 76.972656 Z M 40.125 81.191406 L 32.9375 81.191406 L 32.9375 85.839844 L 33.738281 85.839844 L 33.738281 85.332031 L 39.304688 85.332031 L 39.304688 85.839844 L 40.125 85.839844 Z M 33.738281 84.609375 L 33.738281 83.632812 L 39.304688 83.632812 L 39.304688 84.609375 Z M 33.738281 82.929688 L 33.738281 81.914062 L 39.304688 81.914062 L 39.304688 82.929688 Z M 33.738281 82.929688 "/>
<path style=" stroke:none;fill-rule:nonzero;fill:rgb(0%,0%,0%);fill-opacity:1;" d="M 44.011719 81.953125 L 46.609375 81.953125 L 46.609375 83.007812 L 44.011719 83.007812 Z M 46.609375 81.269531 L 44.011719 81.269531 L 44.011719 80.195312 L 46.609375 80.195312 Z M 44.011719 83.691406 L 46.609375 83.691406 L 46.609375 84.589844 C 46.609375 84.882812 46.472656 85.019531 46.179688 85.019531 L 45.339844 85 L 45.535156 85.761719 L 46.453125 85.761719 C 47.078125 85.761719 47.390625 85.410156 47.390625 84.765625 L 47.390625 79.472656 L 43.230469 79.472656 L 43.230469 85.839844 L 44.011719 85.839844 Z M 51.335938 80.410156 C 51.726562 80.410156 52.019531 80.332031 52.195312 80.15625 C 52.410156 79.960938 52.546875 79.394531 52.625 78.457031 L 51.882812 78.222656 C 51.824219 78.925781 51.765625 79.335938 51.648438 79.492188 C 51.570312 79.609375 51.414062 79.6875 51.179688 79.6875 L 49.714844 79.6875 C 49.402344 79.6875 49.265625 79.492188 49.265625 79.140625 L 49.265625 77.734375 C 50.496094 77.558594 51.589844 77.34375 52.527344 77.109375 L 52.273438 76.386719 C 51.492188 76.601562 50.496094 76.796875 49.265625 76.992188 L 49.265625 75.527344 L 48.464844 75.527344 L 48.464844 79.316406 C 48.464844 80.039062 48.796875 80.410156 49.480469 80.410156 Z M 49.265625 82.949219 C 50.417969 82.851562 51.511719 82.65625 52.527344 82.363281 L 52.273438 81.640625 C 51.375 81.914062 50.378906 82.109375 49.265625 82.226562 L 49.265625 80.839844 L 48.464844 80.839844 L 48.464844 84.746094 C 48.464844 85.332031 48.777344 85.644531 49.460938 85.644531 L 51.375 85.644531 C 51.785156 85.644531 52.078125 85.546875 52.253906 85.390625 C 52.46875 85.175781 52.605469 84.628906 52.683594 83.710938 L 51.941406 83.496094 C 51.902344 84.179688 51.824219 84.589844 51.707031 84.746094 C 51.609375 84.863281 51.433594 84.921875 51.21875 84.921875 L 49.675781 84.921875 C 49.382812 84.921875 49.265625 84.785156 49.265625 84.570312 Z M 46.570312 76.289062 L 45.945312 76.679688 C 46.21875 77.070312 46.472656 77.460938 46.707031 77.8125 C 45.652344 77.949219 44.65625 78.046875 43.71875 78.085938 C 44.34375 77.519531 44.910156 76.738281 45.417969 75.742188 L 44.65625 75.488281 C 44.207031 76.386719 43.621094 77.207031 42.917969 77.929688 C 42.820312 78.007812 42.703125 78.085938 42.546875 78.144531 L 42.78125 78.808594 C 44.441406 78.730469 45.886719 78.59375 47.078125 78.398438 C 47.234375 78.652344 47.371094 78.886719 47.488281 79.140625 L 48.152344 78.671875 C 47.78125 77.988281 47.253906 77.207031 46.570312 76.289062 Z M 46.570312 76.289062 "/>
<path style=" stroke:none;fill-rule:nonzero;fill:rgb(0%,0%,0%);fill-opacity:1;" d="M 55.066406 79.746094 L 55.066406 85.820312 L 55.867188 85.820312 L 55.867188 78.4375 C 56.296875 77.617188 56.667969 76.71875 56.960938 75.78125 L 56.21875 75.449219 C 55.710938 77.304688 54.851562 78.945312 53.679688 80.390625 L 53.933594 81.191406 C 54.324219 80.742188 54.714844 80.253906 55.066406 79.746094 Z M 56.765625 77.421875 L 56.765625 78.203125 L 58.953125 78.203125 C 58.40625 80.273438 57.527344 81.972656 56.257812 83.261719 L 56.6875 83.964844 C 58.074219 82.480469 59.050781 80.546875 59.597656 78.203125 L 59.734375 78.203125 L 59.734375 82.714844 L 58.015625 82.714844 L 58.015625 83.496094 L 59.734375 83.496094 L 59.734375 85.820312 L 60.535156 85.820312 L 60.535156 83.496094 L 62.292969 83.496094 L 62.292969 82.714844 L 60.535156 82.714844 L 60.535156 78.203125 L 60.671875 78.203125 C 61.199219 80.292969 62.15625 82.167969 63.523438 83.828125 L 64.050781 83.164062 C 62.742188 81.71875 61.824219 80.058594 61.316406 78.203125 L 63.601562 78.203125 L 63.601562 77.421875 L 60.535156 77.421875 L 60.535156 75.488281 L 59.734375 75.488281 L 59.734375 77.421875 Z M 56.765625 77.421875 "/>
<path style=" stroke:none;fill-rule:nonzero;fill:rgb(69.803922%,85.098039%,100%);fill-opacity:1;" d="M 132.5 40 L 226.25 40 L 226.25 0.625 L 132.5 0.625 Z M 132.5 40 "/>
<path style="fill:none;stroke-width:1;stroke-linecap:round;stroke-linejoin:round;stroke:rgb(0%,0%,0%);stroke-opacity:1;stroke-miterlimit:10;" d="M 202 88.5 L 277 88.5 L 277 120 L 202 120 Z M 202 88.5 " transform="matrix(1.25,0,0,1.25,-120,-110)"/>
<path style=" stroke:none;fill-rule:nonzero;fill:rgb(0%,0%,0%);fill-opacity:1;" d="M 169.140625 16.289062 L 169.140625 17.050781 L 173.203125 17.050781 L 173.203125 16.289062 Z M 168.691406 19.316406 L 168.691406 20.117188 L 170.253906 20.117188 C 169.707031 22.148438 169.257812 23.398438 168.90625 23.867188 C 168.867188 23.886719 168.808594 23.90625 168.730469 23.925781 L 168.925781 24.707031 C 170.3125 24.453125 171.621094 24.121094 172.8125 23.691406 C 172.929688 23.945312 173.046875 24.21875 173.144531 24.511719 L 173.847656 24.140625 C 173.378906 23.007812 172.871094 21.972656 172.324219 20.996094 L 171.640625 21.328125 C 171.933594 21.855469 172.226562 22.402344 172.519531 23.007812 C 171.640625 23.339844 170.742188 23.59375 169.863281 23.769531 C 170.195312 23.027344 170.585938 21.816406 171.035156 20.117188 L 173.632812 20.117188 L 173.632812 19.316406 Z M 175.332031 15.527344 L 175.332031 17.792969 L 173.808594 17.792969 L 173.808594 18.59375 L 175.332031 18.59375 L 175.332031 18.730469 C 175.292969 21.757812 174.589844 23.945312 173.183594 25.3125 L 173.789062 25.839844 C 175.3125 24.335938 176.09375 21.972656 176.132812 18.730469 L 176.132812 18.59375 L 177.792969 18.59375 C 177.773438 21.621094 177.734375 23.417969 177.65625 24.023438 C 177.578125 24.667969 177.246094 25 176.699219 25 C 176.386719 25 176.035156 24.960938 175.625 24.941406 L 175.800781 25.664062 C 176.289062 25.683594 176.601562 25.703125 176.796875 25.703125 C 177.773438 25.703125 178.320312 25.234375 178.4375 24.335938 C 178.535156 23.496094 178.59375 21.328125 178.59375 17.792969 L 176.132812 17.792969 L 176.132812 15.527344 Z M 175.332031 15.527344 "/>
<path style=" stroke:none;fill-rule:nonzero;fill:rgb(0%,0%,0%);fill-opacity:1;" d="M 184.824219 17.890625 L 185.429688 17.890625 L 185.429688 25.820312 L 186.25 25.820312 L 186.25 23.203125 L 189.609375 23.203125 L 189.609375 22.421875 L 186.25 22.421875 L 186.25 20.527344 L 189.53125 20.527344 L 189.53125 19.746094 L 186.25 19.746094 L 186.25 17.890625 L 190.019531 17.890625 L 190.019531 17.089844 L 185.175781 17.089844 C 185.351562 16.621094 185.527344 16.132812 185.703125 15.605469 L 184.902344 15.429688 C 184.277344 17.324219 183.457031 18.867188 182.460938 20.039062 L 183.027344 20.722656 C 183.710938 19.921875 184.296875 18.964844 184.824219 17.890625 Z M 181.210938 19.492188 L 181.210938 25.820312 L 182.050781 25.820312 L 182.050781 18.28125 C 182.5 17.519531 182.890625 16.699219 183.183594 15.820312 L 182.421875 15.46875 C 181.875 17.167969 180.976562 18.671875 179.765625 20 L 180.039062 20.859375 C 180.46875 20.429688 180.859375 19.980469 181.210938 19.492188 Z M 181.210938 19.492188 "/>
<path style=" stroke:none;fill-rule:nonzero;fill:rgb(40%,74.901961%,100%);fill-opacity:1;" d="M 132.5 100 L 226.25 100 L 226.25 60.625 L 132.5 60.625 Z M 132.5 100 "/>
<path style="fill:none;stroke-width:1;stroke-linecap:round;stroke-linejoin:round;stroke:rgb(0%,0%,0%);stroke-opacity:1;stroke-miterlimit:10;" d="M 202 136.5 L 277 136.5 L 277 168 L 202 168 Z M 202 136.5 " transform="matrix(1.25,0,0,1.25,-120,-110)"/>
<path style=" stroke:none;fill-rule:nonzero;fill:rgb(0%,0%,0%);fill-opacity:1;" d="M 168.90625 81.777344 L 168.90625 82.558594 L 173.105469 82.558594 C 172.539062 83.710938 171.035156 84.550781 168.632812 85.039062 L 168.964844 85.800781 C 171.503906 85.214844 173.125 84.257812 173.808594 82.949219 C 174.453125 84.277344 176.015625 85.234375 178.515625 85.761719 L 178.828125 85.019531 C 176.582031 84.589844 175.078125 83.769531 174.335938 82.558594 L 178.59375 82.558594 L 178.59375 81.777344 L 174.140625 81.777344 C 174.179688 81.484375 174.199219 81.171875 174.199219 80.820312 L 173.417969 80.820312 C 173.398438 81.191406 173.378906 81.503906 173.339844 81.777344 Z M 171.914062 75.546875 L 171.914062 78.300781 C 171.015625 78.789062 169.960938 79.199219 168.769531 79.550781 L 169.101562 80.292969 C 170.15625 79.960938 171.09375 79.550781 171.914062 79.121094 L 171.914062 80.742188 L 172.734375 80.742188 L 172.734375 75.546875 Z M 169.472656 76.015625 L 169.023438 76.660156 C 169.667969 76.972656 170.292969 77.402344 170.898438 77.929688 L 171.347656 77.265625 C 170.78125 76.757812 170.15625 76.367188 169.472656 76.015625 Z M 175.234375 75.507812 C 174.84375 76.367188 174.140625 77.109375 173.066406 77.714844 L 173.574219 78.359375 C 174.179688 77.988281 174.6875 77.597656 175.097656 77.148438 L 177.578125 77.148438 C 177.285156 77.753906 176.816406 78.300781 176.171875 78.75 C 175.839844 78.417969 175.488281 78.085938 175.117188 77.773438 L 174.550781 78.203125 C 174.902344 78.457031 175.234375 78.769531 175.585938 79.121094 C 174.960938 79.472656 174.21875 79.746094 173.339844 79.980469 L 173.730469 80.683594 C 176.289062 79.980469 177.832031 78.789062 178.378906 77.089844 L 178.378906 76.386719 L 175.664062 76.386719 C 175.820312 76.152344 175.9375 75.878906 176.054688 75.605469 Z M 175.234375 75.507812 "/>
<path style=" stroke:none;fill-rule:nonzero;fill:rgb(0%,0%,0%);fill-opacity:1;" d="M 182.324219 78.769531 L 182.324219 80.507812 C 182.304688 82.695312 181.914062 84.277344 181.132812 85.253906 L 181.71875 85.761719 C 182.5 84.746094 182.949219 83.203125 183.046875 81.132812 L 184.394531 81.132812 C 184.375 82.734375 184.355469 83.769531 184.277344 84.238281 C 184.199219 84.726562 184.003906 84.960938 183.652344 85 C 183.457031 85 183.183594 84.960938 182.871094 84.941406 L 183.085938 85.625 C 183.320312 85.644531 183.554688 85.664062 183.75 85.664062 C 184.375 85.644531 184.746094 85.3125 184.902344 84.667969 C 185.039062 84.042969 185.117188 82.636719 185.136719 80.429688 L 183.046875 80.429688 L 183.046875 78.769531 L 185.214844 78.769531 L 185.214844 78.027344 L 181.230469 78.027344 L 181.230469 76.699219 L 185.507812 76.699219 L 185.507812 75.957031 L 180.488281 75.957031 L 180.488281 80.527344 C 180.46875 82.578125 180.234375 84.160156 179.785156 85.292969 L 180.351562 85.820312 C 180.898438 84.492188 181.191406 82.734375 181.230469 80.527344 L 181.230469 78.769531 Z M 186.894531 75.546875 L 186.894531 77.910156 L 185.625 77.910156 L 185.625 78.652344 L 186.894531 78.652344 C 186.835938 81.699219 186.269531 83.90625 185.136719 85.3125 L 185.722656 85.820312 C 186.953125 84.296875 187.617188 81.894531 187.675781 78.652344 L 188.945312 78.652344 C 188.945312 81.757812 188.886719 83.613281 188.789062 84.199219 C 188.710938 84.726562 188.398438 85 187.890625 85 C 187.617188 85 187.324219 84.960938 186.972656 84.941406 L 187.128906 85.625 C 187.539062 85.664062 187.832031 85.664062 188.007812 85.664062 C 188.90625 85.664062 189.414062 85.253906 189.53125 84.433594 C 189.628906 83.613281 189.707031 81.445312 189.707031 77.910156 L 187.695312 77.910156 L 187.695312 75.546875 Z M 186.894531 75.546875 "/>
<path style=" stroke:none;fill-rule:nonzero;fill:rgb(100%,100%,100%);fill-opacity:1;" d="M 264.25 100 L 358 100 L 358 60.625 L 264.25 60.625 Z M 264.25 100 "/>
<path style="fill:none;stroke-width:1;stroke-linecap:round;stroke-linejoin:round;stroke:rgb(0%,0%,0%);stroke-opacity:1;stroke-miterlimit:10;" d="M 307.4 136.5 L 382.4 136.5 L 382.4 168 L 307.4 168 Z M 307.4 136.5 " transform="matrix(1.25,0,0,1.25,-120,-110)"/>
<path style=" stroke:none;fill-rule:nonzero;fill:rgb(0%,0%,0%);fill-opacity:1;" d="M 308.527344 79.101562 L 307.902344 79.492188 C 308.820312 80.644531 309.542969 81.679688 310.089844 82.617188 L 310.773438 82.148438 C 310.246094 81.269531 309.484375 80.273438 308.527344 79.101562 Z M 300.65625 79.589844 L 300.65625 80.371094 L 301.90625 80.371094 L 301.90625 83.261719 C 301.378906 83.398438 300.871094 83.515625 300.34375 83.59375 L 300.539062 84.375 C 301.847656 84.082031 303.058594 83.710938 304.191406 83.28125 L 304.191406 82.5 C 303.703125 82.695312 303.195312 82.871094 302.6875 83.027344 L 302.6875 80.371094 L 303.976562 80.371094 L 303.976562 79.589844 L 302.6875 79.589844 L 302.6875 77.167969 L 304.132812 77.167969 L 304.132812 76.367188 L 300.480469 76.367188 L 300.480469 77.167969 L 301.90625 77.167969 L 301.90625 79.589844 Z M 304.582031 76.054688 L 304.582031 76.835938 L 307.472656 76.835938 C 306.828125 78.886719 305.695312 80.644531 304.054688 82.109375 L 304.542969 82.734375 C 305.519531 81.875 306.320312 80.898438 306.964844 79.804688 L 306.964844 85.800781 L 307.765625 85.800781 L 307.765625 78.261719 C 307.960938 77.792969 308.117188 77.324219 308.273438 76.835938 L 310.285156 76.835938 L 310.285156 76.054688 Z M 304.582031 76.054688 "/>
<path style=" stroke:none;fill-rule:nonzero;fill:rgb(0%,0%,0%);fill-opacity:1;" d="M 315.324219 76.347656 L 315.324219 77.03125 L 316.359375 77.03125 C 316.515625 77.382812 316.652344 77.792969 316.769531 78.222656 L 314.992188 78.222656 L 314.992188 78.90625 L 321.75 78.90625 L 321.75 78.222656 L 319.816406 78.222656 C 319.992188 77.832031 320.128906 77.421875 320.246094 77.03125 L 321.417969 77.03125 L 321.417969 76.347656 L 318.722656 76.347656 C 318.625 75.996094 318.546875 75.683594 318.429688 75.390625 L 317.570312 75.527344 C 317.6875 75.78125 317.785156 76.054688 317.902344 76.347656 Z M 319.035156 78.222656 L 317.53125 78.222656 C 317.414062 77.792969 317.296875 77.402344 317.160156 77.03125 L 319.484375 77.03125 C 319.386719 77.421875 319.230469 77.832031 319.035156 78.222656 Z M 315.695312 79.609375 L 315.695312 83.144531 L 316.90625 83.144531 C 316.789062 83.632812 316.554688 84.023438 316.203125 84.316406 C 315.792969 84.648438 315.109375 84.921875 314.171875 85.097656 L 314.484375 85.820312 C 315.558594 85.585938 316.339844 85.234375 316.808594 84.785156 C 317.238281 84.375 317.53125 83.828125 317.667969 83.144531 L 318.761719 83.144531 L 318.761719 84.746094 C 318.761719 85.351562 319.054688 85.664062 319.640625 85.664062 L 320.929688 85.664062 C 321.242188 85.664062 321.476562 85.585938 321.632812 85.410156 C 321.789062 85.234375 321.90625 84.746094 321.964844 83.925781 L 321.242188 83.710938 C 321.222656 84.316406 321.164062 84.667969 321.085938 84.804688 C 321.027344 84.882812 320.929688 84.941406 320.792969 84.941406 L 319.875 84.941406 C 319.660156 84.941406 319.542969 84.824219 319.542969 84.589844 L 319.542969 83.144531 L 320.96875 83.144531 L 320.96875 79.609375 Z M 320.207031 82.480469 L 316.4375 82.480469 L 316.4375 81.640625 L 320.207031 81.640625 Z M 316.4375 81.074219 L 316.4375 80.253906 L 320.207031 80.253906 L 320.207031 81.074219 Z M 314.972656 82.324219 C 314.523438 82.539062 314.074219 82.734375 313.605469 82.910156 L 313.605469 79.023438 L 314.621094 79.023438 L 314.621094 78.242188 L 313.605469 78.242188 L 313.605469 75.566406 L 312.785156 75.566406 L 312.785156 78.242188 L 311.613281 78.242188 L 311.613281 79.023438 L 312.785156 79.023438 L 312.785156 83.183594 C 312.394531 83.300781 312.003906 83.398438 311.613281 83.496094 L 311.828125 84.375 C 312.941406 84.042969 313.996094 83.632812 314.972656 83.144531 Z M 314.972656 82.324219 "/>
<path style="fill:none;stroke-width:1;stroke-linecap:round;stroke-linejoin:miter;stroke:rgb(0%,0%,0%);stroke-opacity:1;stroke-miterlimit:10;" d="M 239.5 120 L 239.5 128.25 L 239.5 127.8 L 239.5 130.6 " transform="matrix(1.25,0,0,1.25,-120,-110)"/>
<path style="fill:none;stroke-width:1;stroke-linecap:butt;stroke-linejoin:miter;stroke:rgb(0%,0%,0%);stroke-opacity:1;stroke-miterlimit:10;" d="M 239.5 134.6 L 239.5 130.6 M 241 130.6 L 239.5 134.6 L 238 130.6 " transform="matrix(1.25,0,0,1.25,-120,-110)"/>
<path style="fill:none;stroke-width:1;stroke-linecap:round;stroke-linejoin:miter;stroke:rgb(0%,0%,0%);stroke-opacity:1;stroke-miterlimit:10;" d="M 202 152.25 L 177.5 152.25 " transform="matrix(1.25,0,0,1.25,-120,-110)"/>
<path style="fill:none;stroke-width:1;stroke-linecap:butt;stroke-linejoin:miter;stroke:rgb(0%,0%,0%);stroke-opacity:1;stroke-miterlimit:10;" d="M 173.5 152.25 L 177.5 152.25 M 177.5 153.75 L 173.5 152.25 L 177.5 150.75 " transform="matrix(1.25,0,0,1.25,-120,-110)"/>
<path style="fill:none;stroke-width:1;stroke-linecap:round;stroke-linejoin:miter;stroke:rgb(0%,0%,0%);stroke-opacity:1;stroke-miterlimit:10;" d="M 307.4 152.25 L 282.9 152.25 " transform="matrix(1.25,0,0,1.25,-120,-110)"/>
<path style="fill:none;stroke-width:1;stroke-linecap:butt;stroke-linejoin:miter;stroke:rgb(0%,0%,0%);stroke-opacity:1;stroke-miterlimit:10;" d="M 278.9 152.25 L 282.9 152.25 M 282.9 153.75 L 278.9 152.25 L 282.9 150.75 " transform="matrix(1.25,0,0,1.25,-120,-110)"/>
<path style=" stroke:none;fill-rule:nonzero;fill:rgb(69.803922%,85.098039%,100%);fill-opacity:1;" d="M 132.5 160 L 226.25 160 L 226.25 120.625 L 132.5 120.625 Z M 132.5 160 "/>
<path style="fill:none;stroke-width:1;stroke-linecap:round;stroke-linejoin:round;stroke:rgb(0%,0%,0%);stroke-opacity:1;stroke-miterlimit:10;" d="M 202 184.5 L 277 184.5 L 277 216 L 202 216 Z M 202 184.5 " transform="matrix(1.25,0,0,1.25,-120,-110)"/>
<path style=" stroke:none;fill-rule:nonzero;fill:rgb(0%,0%,0%);fill-opacity:1;" d="M 177.949219 135.9375 L 173.261719 135.9375 L 173.261719 142.128906 L 174.023438 142.128906 L 174.023438 136.699219 L 177.1875 136.699219 L 177.1875 142.128906 L 177.949219 142.128906 Z M 177.773438 145.605469 C 178.125 145.605469 178.398438 145.527344 178.574219 145.332031 C 178.769531 145.136719 178.90625 144.550781 178.964844 143.59375 L 178.261719 143.359375 C 178.222656 144.101562 178.144531 144.550781 178.046875 144.707031 C 177.949219 144.824219 177.832031 144.882812 177.636719 144.882812 L 176.894531 144.882812 C 176.640625 144.882812 176.523438 144.746094 176.523438 144.492188 L 176.523438 142.148438 L 175.761719 142.148438 L 175.761719 144.667969 C 175.761719 145.292969 176.054688 145.605469 176.679688 145.605469 Z M 175.214844 137.519531 L 175.214844 139.707031 C 175.175781 141.113281 174.921875 142.265625 174.472656 143.144531 C 173.984375 143.984375 173.105469 144.648438 171.855469 145.175781 L 172.285156 145.859375 C 173.574219 145.332031 174.492188 144.628906 175.058594 143.691406 C 175.644531 142.714844 175.9375 141.386719 175.976562 139.707031 L 175.976562 137.519531 Z M 169.335938 138.105469 L 168.789062 138.632812 C 169.53125 139.550781 170.214844 140.429688 170.800781 141.308594 C 170.292969 142.65625 169.550781 143.808594 168.574219 144.785156 L 169.101562 145.371094 C 170.039062 144.433594 170.78125 143.339844 171.328125 142.089844 C 171.699219 142.675781 172.070312 143.28125 172.382812 143.886719 L 172.949219 143.320312 C 172.558594 142.617188 172.128906 141.914062 171.660156 141.191406 C 172.089844 139.960938 172.324219 138.554688 172.402344 137.011719 L 172.402344 136.386719 L 168.867188 136.386719 L 168.867188 137.167969 L 171.640625 137.167969 C 171.5625 138.339844 171.386719 139.414062 171.113281 140.410156 C 170.566406 139.628906 169.960938 138.867188 169.335938 138.105469 Z M 169.335938 138.105469 "/>
<path style=" stroke:none;fill-rule:nonzero;fill:rgb(0%,0%,0%);fill-opacity:1;" d="M 180.585938 135.742188 L 180.039062 136.269531 C 180.722656 136.796875 181.269531 137.304688 181.640625 137.773438 L 182.167969 137.226562 C 181.757812 136.738281 181.210938 136.230469 180.585938 135.742188 Z M 180.410156 138.496094 L 179.863281 139.023438 C 180.527344 139.589844 181.035156 140.136719 181.425781 140.644531 L 181.953125 140.117188 C 181.542969 139.570312 181.015625 139.042969 180.410156 138.496094 Z M 181.40625 141.523438 C 180.976562 142.832031 180.46875 144.121094 179.921875 145.371094 L 180.664062 145.683594 C 181.171875 144.453125 181.660156 143.164062 182.089844 141.796875 Z M 186.386719 136.054688 L 182.617188 136.054688 L 182.617188 142.96875 L 183.339844 142.96875 L 183.339844 136.738281 L 185.683594 136.738281 L 185.683594 142.910156 L 186.386719 142.910156 Z M 185.195312 143.4375 L 184.6875 143.90625 C 185.410156 144.589844 185.976562 145.214844 186.367188 145.820312 L 186.914062 145.273438 C 186.445312 144.667969 185.878906 144.042969 185.195312 143.4375 Z M 184.179688 137.519531 L 184.179688 141.09375 C 184.160156 142.128906 183.984375 142.96875 183.691406 143.632812 C 183.378906 144.257812 182.8125 144.765625 182.011719 145.15625 L 182.441406 145.820312 C 183.261719 145.410156 183.867188 144.863281 184.238281 144.160156 C 184.628906 143.398438 184.824219 142.363281 184.863281 141.09375 L 184.863281 137.519531 Z M 188.828125 145.722656 C 189.414062 145.722656 189.707031 145.390625 189.707031 144.765625 L 189.707031 135.566406 L 188.945312 135.566406 L 188.945312 144.570312 C 188.945312 144.863281 188.808594 145.019531 188.554688 145.019531 C 188.203125 145.019531 187.8125 145 187.421875 144.960938 L 187.578125 145.722656 Z M 187.285156 136.484375 L 187.285156 143.515625 L 187.988281 143.515625 L 187.988281 136.484375 Z M 187.285156 136.484375 "/>
<path style="fill:none;stroke-width:1;stroke-linecap:round;stroke-linejoin:miter;stroke:rgb(0%,0%,0%);stroke-opacity:1;stroke-miterlimit:10;" d="M 134.1 136.5 L 134.1 108.284375 C 134.1 106.078125 135.890625 104.284375 138.1 104.284375 L 177.203125 104.284375 C 177.20625 104.284375 177.2125 104.284375 177.215625 104.284375 L 187.09375 104.25 C 187.096875 104.25 187.1 104.25 187.10625 104.25 L 196.1 104.25 " transform="matrix(1.25,0,0,1.25,-120,-110)"/>
<path style="fill:none;stroke-width:1;stroke-linecap:butt;stroke-linejoin:miter;stroke:rgb(0%,0%,0%);stroke-opacity:1;stroke-miterlimit:10;" d="M 200.1 104.25 L 196.1 104.25 M 196.1 102.75 L 200.1 104.25 L 196.1 105.75 " transform="matrix(1.25,0,0,1.25,-120,-110)"/>
<path style="fill:none;stroke-width:1;stroke-linecap:round;stroke-linejoin:miter;stroke:rgb(0%,0%,0%);stroke-opacity:1;stroke-miterlimit:10;" d="M 277 104.25 L 286.9875 104.25 C 286.996875 104.25 287.003125 104.25 287.0125 104.25 L 296.95 104.2 C 296.95625 104.2 296.965625 104.2 296.96875 104.2 L 340.9 104.2 C 343.109375 104.2 344.9 105.99375 344.9 108.2 L 344.9 130.6 " transform="matrix(1.25,0,0,1.25,-120,-110)"/>
<path style="fill:none;stroke-width:1;stroke-linecap:butt;stroke-linejoin:miter;stroke:rgb(0%,0%,0%);stroke-opacity:1;stroke-miterlimit:10;" d="M 344.9 134.6 L 344.9 130.6 M 346.4 130.6 L 344.9 134.6 L 343.4 130.6 " transform="matrix(1.25,0,0,1.25,-120,-110)"/>
<path style="fill:none;stroke-width:1;stroke-linecap:round;stroke-linejoin:miter;stroke:rgb(0%,0%,0%);stroke-opacity:1;stroke-miterlimit:10;" d="M 344.9 168 L 344.9 195.903125 C 344.9 198.109375 343.109375 199.903125 340.9 199.903125 L 307.23125 199.903125 C 307.203125 199.903125 307.171875 199.903125 307.140625 199.903125 L 291.94375 200.25 C 291.9125 200.25 291.8875 200.25 291.85625 200.25 L 282.9 200.25 " transform="matrix(1.25,0,0,1.25,-120,-110)"/>
<path style="fill:none;stroke-width:1;stroke-linecap:butt;stroke-linejoin:miter;stroke:rgb(0%,0%,0%);stroke-opacity:1;stroke-miterlimit:10;" d="M 278.9 200.25 L 282.9 200.25 M 282.9 201.75 L 278.9 200.25 L 282.9 198.75 " transform="matrix(1.25,0,0,1.25,-120,-110)"/>
<path style="fill:none;stroke-width:1;stroke-linecap:round;stroke-linejoin:miter;stroke:rgb(0%,0%,0%);stroke-opacity:1;stroke-miterlimit:10;" d="M 202 200.25 L 192.01875 200.25 C 192.00625 200.25 191.99375 200.25 191.98125 200.25 L 185.55 200.315625 C 185.534375 200.315625 185.525 200.315625 185.50625 200.315625 L 138.1 200.315625 C 135.890625 200.315625 134.1 198.525 134.1 196.315625 L 134.1 173.9 " transform="matrix(1.25,0,0,1.25,-120,-110)"/>
<path style="fill:none;stroke-width:1;stroke-linecap:butt;stroke-linejoin:miter;stroke:rgb(0%,0%,0%);stroke-opacity:1;stroke-miterlimit:10;" d="M 134.1 169.9 L 134.1 173.9 M 132.6 173.9 L 134.1 169.9 L 135.6 173.9 " transform="matrix(1.25,0,0,1.25,-120,-110)"/>
</g>
</svg>
