<?xml version="1.0" encoding="UTF-8"?>
<svg xmlns="http://www.w3.org/2000/svg" xmlns:xlink="http://www.w3.org/1999/xlink" width="381pt" height="116pt" viewBox="0 0 381 116" version="1.1">
<g id="surface1">
<path style="fill:none;stroke-width:1;stroke-linecap:round;stroke-linejoin:miter;stroke:rgb(0%,0%,0%);stroke-opacity:1;stroke-miterlimit:10;" d="M 169 98.45 L 198.0625 98.45 " transform="matrix(1.25,0,0,1.25,-116.25,-86.25)"/>
<path style="fill:none;stroke-width:1;stroke-linecap:butt;stroke-linejoin:miter;stroke:rgb(0%,0%,0%);stroke-opacity:1;stroke-miterlimit:10;" d="M 202.0625 98.45 L 198.0625 98.45 M 198.0625 96.95 L 202.0625 98.45 L 198.0625 99.95 " transform="matrix(1.25,0,0,1.25,-116.25,-86.25)"/>
<path style=" stroke:none;fill-rule:nonzero;fill:rgb(100%,100%,100%);fill-opacity:1;" d="M 0.835938 115 L 94.585938 115 L 94.585938 75.625 L 0.835938 75.625 Z M 0.835938 115 "/>
<path style="fill:none;stroke-width:1;stroke-linecap:round;stroke-linejoin:round;stroke:rgb(0%,0%,0%);stroke-opacity:1;stroke-miterlimit:10;" d="M 93.66875 129.5 L 168.66875 129.5 L 168.66875 161 L 93.66875 161 Z M 93.66875 129.5 " transform="matrix(1.25,0,0,1.25,-116.25,-86.25)"/>
<path style=" stroke:none;fill-rule:nonzero;fill:rgb(0%,0%,0%);fill-opacity:1;" d="M 39.035156 93.632812 L 39.035156 95.292969 L 37.921875 95.292969 C 38.195312 94.570312 38.46875 93.75 38.703125 92.832031 L 40.871094 92.832031 L 40.871094 92.070312 L 38.898438 92.070312 C 38.996094 91.621094 39.09375 91.132812 39.210938 90.625 L 38.46875 90.46875 C 38.351562 91.015625 38.253906 91.5625 38.136719 92.070312 L 37.023438 92.070312 L 37.023438 92.832031 L 37.960938 92.832031 C 37.707031 93.828125 37.433594 94.6875 37.101562 95.351562 L 37.277344 96.035156 L 39.035156 96.035156 L 39.035156 97.714844 C 38.371094 97.832031 37.6875 97.949219 36.945312 98.027344 L 37.042969 98.828125 C 37.726562 98.710938 38.390625 98.613281 39.035156 98.476562 L 39.035156 100.820312 L 39.777344 100.820312 L 39.777344 98.320312 L 40.851562 98.046875 L 40.851562 97.285156 C 40.519531 97.363281 40.167969 97.460938 39.777344 97.558594 L 39.777344 96.035156 L 40.8125 96.035156 L 40.8125 95.292969 L 39.777344 95.292969 L 39.777344 93.632812 Z M 42.355469 93.046875 L 42.355469 93.710938 L 45.578125 93.710938 L 45.578125 93.046875 L 42.355469 93.046875 C 42.921875 92.5 43.46875 91.894531 43.996094 91.25 C 44.855469 92.34375 45.8125 93.28125 46.867188 94.042969 L 47.296875 93.417969 C 46.28125 92.695312 45.285156 91.738281 44.289062 90.527344 L 43.722656 90.527344 C 42.804688 91.640625 41.769531 92.636719 40.617188 93.476562 L 41.066406 94.160156 C 41.496094 93.808594 41.925781 93.4375 42.355469 93.046875 Z M 43.136719 100.742188 C 43.683594 100.742188 43.976562 100.449219 43.976562 99.863281 L 43.976562 94.609375 L 41.320312 94.609375 L 41.320312 100.820312 L 42.023438 100.820312 L 42.023438 98.710938 L 43.292969 98.710938 L 43.292969 99.726562 C 43.292969 99.960938 43.15625 100.097656 42.921875 100.097656 L 42.414062 100.078125 L 42.589844 100.742188 Z M 42.023438 98.085938 L 42.023438 97.011719 L 43.292969 97.011719 L 43.292969 98.085938 Z M 42.023438 96.386719 L 42.023438 95.273438 L 43.292969 95.273438 L 43.292969 96.386719 Z M 44.640625 94.921875 L 44.640625 98.964844 L 45.285156 98.964844 L 45.285156 94.921875 Z M 45.871094 100.761719 C 46.417969 100.761719 46.691406 100.429688 46.691406 99.785156 L 46.691406 94.414062 L 45.988281 94.414062 L 45.988281 99.609375 C 45.988281 99.921875 45.871094 100.097656 45.617188 100.097656 C 45.34375 100.097656 45.050781 100.078125 44.757812 100.039062 L 44.914062 100.761719 Z M 45.871094 100.761719 "/>
<path style=" stroke:none;fill-rule:nonzero;fill:rgb(0%,0%,0%);fill-opacity:1;" d="M 52.84375 93.105469 C 52.121094 96.09375 50.558594 98.398438 48.136719 99.960938 L 48.625 100.664062 C 50.988281 99.121094 52.550781 96.914062 53.292969 94.042969 C 53.351562 94.179688 53.390625 94.335938 53.46875 94.53125 C 54.621094 97.5 56.105469 99.550781 57.941406 100.644531 L 58.449219 100 C 56.652344 98.886719 55.246094 96.972656 54.191406 94.296875 C 53.507812 92.460938 52.648438 91.191406 51.652344 90.488281 L 50.988281 90.917969 C 51.691406 91.445312 52.316406 92.167969 52.84375 93.105469 Z M 52.84375 93.105469 "/>
<path style=" stroke:none;fill-rule:nonzero;fill:rgb(100%,100%,100%);fill-opacity:1;" d="M 17.03125 41.5 L 110.78125 41.5 L 110.78125 2.125 L 17.03125 2.125 Z M 17.03125 41.5 "/>
<path style="fill:none;stroke-width:1;stroke-linecap:round;stroke-linejoin:round;stroke:rgb(0%,0%,0%);stroke-opacity:1;stroke-miterlimit:10;" d="M 106.625 70.7 L 181.625 70.7 L 181.625 102.2 L 106.625 102.2 Z M 106.625 70.7 " transform="matrix(1.25,0,0,1.25,-116.25,-86.25)"/>
<path style=" stroke:none;fill-rule:nonzero;fill:rgb(100%,100%,100%);fill-opacity:1;" d="M 10 49 L 103.75 49 L 103.75 9.625 L 10 9.625 Z M 10 49 "/>
<path style="fill:none;stroke-width:1;stroke-linecap:round;stroke-linejoin:round;stroke:rgb(0%,0%,0%);stroke-opacity:1;stroke-miterlimit:10;" d="M 101 76.7 L 176 76.7 L 176 108.2 L 101 108.2 Z M 101 76.7 " transform="matrix(1.25,0,0,1.25,-116.25,-86.25)"/>
<path style=" stroke:none;fill-rule:nonzero;fill:rgb(100%,100%,100%);fill-opacity:1;" d="M 1.25 56.5 L 95 56.5 L 95 17.125 L 1.25 17.125 Z M 1.25 56.5 "/>
<path style="fill:none;stroke-width:1;stroke-linecap:round;stroke-linejoin:round;stroke:rgb(0%,0%,0%);stroke-opacity:1;stroke-miterlimit:10;" d="M 94 82.7 L 169 82.7 L 169 114.2 L 94 114.2 Z M 94 82.7 " transform="matrix(1.25,0,0,1.25,-116.25,-86.25)"/>
<path style=" stroke:none;fill-rule:nonzero;fill:rgb(0%,0%,0%);fill-opacity:1;" d="M 32.792969 32.769531 L 32.792969 41.578125 L 33.574219 41.578125 L 33.574219 32.769531 Z M 35.15625 32.222656 L 35.15625 42.339844 L 35.957031 42.339844 L 35.957031 32.222656 Z M 30.566406 32.261719 L 30.566406 37.203125 C 30.546875 39.332031 30.097656 40.875 29.199219 41.832031 L 29.804688 42.378906 C 30.800781 41.285156 31.308594 39.566406 31.347656 37.203125 L 31.347656 32.261719 Z M 27.441406 32.105469 L 26.894531 32.652344 C 27.695312 33.257812 28.339844 33.84375 28.828125 34.410156 L 29.375 33.84375 C 28.847656 33.257812 28.203125 32.691406 27.441406 32.105469 Z M 26.132812 35.445312 L 26.132812 36.207031 L 27.792969 36.207031 L 27.792969 40.582031 C 27.792969 40.777344 27.695312 40.953125 27.539062 41.089844 L 27.851562 41.8125 C 28.535156 41.324219 29.160156 40.757812 29.746094 40.132812 L 29.53125 39.292969 C 29.199219 39.644531 28.867188 39.976562 28.554688 40.269531 L 28.554688 35.445312 Z M 26.132812 35.445312 "/>
<path style=" stroke:none;fill-rule:nonzero;fill:rgb(0%,0%,0%);fill-opacity:1;" d="M 40.9375 40.035156 C 39.921875 40.464844 38.710938 40.796875 37.34375 41.050781 L 37.441406 41.871094 C 38.75 41.597656 39.921875 41.246094 40.9375 40.835938 Z M 39.238281 32.027344 C 38.828125 33.355469 38.359375 34.507812 37.792969 35.542969 C 37.695312 35.679688 37.578125 35.796875 37.441406 35.855469 L 37.65625 36.597656 C 38.242188 36.5 38.808594 36.382812 39.375 36.265625 C 38.828125 37.320312 38.339844 38.0625 37.949219 38.511719 C 37.851562 38.609375 37.714844 38.6875 37.578125 38.765625 L 37.792969 39.507812 C 38.828125 39.351562 39.902344 39.078125 41.035156 38.648438 L 41.035156 37.90625 C 40.273438 38.199219 39.511719 38.414062 38.769531 38.570312 C 39.375 37.769531 40.15625 36.441406 41.113281 34.566406 L 40.371094 34.273438 C 40.15625 34.722656 39.960938 35.132812 39.746094 35.542969 C 39.296875 35.621094 38.847656 35.699219 38.398438 35.777344 C 38.945312 34.917969 39.472656 33.765625 40.019531 32.320312 Z M 42.304688 38.785156 C 41.972656 39.722656 41.503906 40.621094 40.878906 41.5 L 41.582031 41.890625 C 42.109375 41.128906 42.597656 40.191406 43.007812 39.078125 Z M 46.523438 38.785156 L 45.800781 39.019531 C 46.25 39.839844 46.660156 40.796875 47.03125 41.890625 L 47.714844 41.578125 C 47.382812 40.582031 46.972656 39.664062 46.523438 38.785156 Z M 44.003906 42.203125 C 44.648438 42.203125 44.980469 41.910156 44.980469 41.304688 L 44.980469 38.140625 L 47.363281 38.140625 L 47.363281 37.417969 L 44.980469 37.417969 L 44.980469 35.230469 L 43.476562 35.230469 C 43.59375 34.859375 43.730469 34.429688 43.867188 34.019531 L 47.363281 34.019531 L 47.363281 33.257812 L 44.101562 33.257812 C 44.199219 32.886719 44.296875 32.515625 44.394531 32.125 L 43.613281 31.988281 C 43.496094 32.417969 43.398438 32.847656 43.28125 33.257812 L 40.78125 33.257812 L 40.78125 34.019531 L 43.066406 34.019531 C 42.929688 34.429688 42.792969 34.839844 42.65625 35.230469 L 41.191406 35.230469 L 41.191406 35.972656 L 42.363281 35.972656 C 42.128906 36.5 41.875 37.007812 41.640625 37.4375 L 41.816406 38.140625 L 44.199219 38.140625 L 44.199219 41.070312 C 44.199219 41.363281 44.042969 41.5 43.769531 41.5 L 42.695312 41.460938 L 42.890625 42.203125 Z M 43.183594 35.972656 L 44.199219 35.972656 L 44.199219 37.417969 L 42.539062 37.417969 C 42.753906 36.96875 42.96875 36.480469 43.183594 35.972656 Z M 43.183594 35.972656 "/>
<path style=" stroke:none;fill-rule:nonzero;fill:rgb(0%,0%,0%);fill-opacity:1;" d="M 50.703125 35.132812 L 50.703125 36.792969 L 49.589844 36.792969 C 49.863281 36.070312 50.136719 35.25 50.371094 34.332031 L 52.539062 34.332031 L 52.539062 33.570312 L 50.566406 33.570312 C 50.664062 33.121094 50.761719 32.632812 50.878906 32.125 L 50.136719 31.96875 C 50.019531 32.515625 49.921875 33.0625 49.804688 33.570312 L 48.691406 33.570312 L 48.691406 34.332031 L 49.628906 34.332031 C 49.375 35.328125 49.101562 36.1875 48.769531 36.851562 L 48.945312 37.535156 L 50.703125 37.535156 L 50.703125 39.214844 C 50.039062 39.332031 49.355469 39.449219 48.613281 39.527344 L 48.710938 40.328125 C 49.394531 40.210938 50.058594 40.113281 50.703125 39.976562 L 50.703125 42.320312 L 51.445312 42.320312 L 51.445312 39.820312 L 52.519531 39.546875 L 52.519531 38.785156 C 52.1875 38.863281 51.835938 38.960938 51.445312 39.058594 L 51.445312 37.535156 L 52.480469 37.535156 L 52.480469 36.792969 L 51.445312 36.792969 L 51.445312 35.132812 Z M 54.023438 34.546875 L 54.023438 35.210938 L 57.246094 35.210938 L 57.246094 34.546875 L 54.023438 34.546875 C 54.589844 34 55.136719 33.394531 55.664062 32.75 C 56.523438 33.84375 57.480469 34.78125 58.535156 35.542969 L 58.964844 34.917969 C 57.949219 34.195312 56.953125 33.238281 55.957031 32.027344 L 55.390625 32.027344 C 54.472656 33.140625 53.4375 34.136719 52.285156 34.976562 L 52.734375 35.660156 C 53.164062 35.308594 53.59375 34.9375 54.023438 34.546875 Z M 54.804688 42.242188 C 55.351562 42.242188 55.644531 41.949219 55.644531 41.363281 L 55.644531 36.109375 L 52.988281 36.109375 L 52.988281 42.320312 L 53.691406 42.320312 L 53.691406 40.210938 L 54.960938 40.210938 L 54.960938 41.226562 C 54.960938 41.460938 54.824219 41.597656 54.589844 41.597656 L 54.082031 41.578125 L 54.257812 42.242188 Z M 53.691406 39.585938 L 53.691406 38.511719 L 54.960938 38.511719 L 54.960938 39.585938 Z M 53.691406 37.886719 L 53.691406 36.773438 L 54.960938 36.773438 L 54.960938 37.886719 Z M 56.308594 36.421875 L 56.308594 40.464844 L 56.953125 40.464844 L 56.953125 36.421875 Z M 57.539062 42.261719 C 58.085938 42.261719 58.359375 41.929688 58.359375 41.285156 L 58.359375 35.914062 L 57.65625 35.914062 L 57.65625 41.109375 C 57.65625 41.421875 57.539062 41.597656 57.285156 41.597656 C 57.011719 41.597656 56.71875 41.578125 56.425781 41.539062 L 56.582031 42.261719 Z M 57.539062 42.261719 "/>
<path style=" stroke:none;fill-rule:nonzero;fill:rgb(0%,0%,0%);fill-opacity:1;" d="M 64.511719 34.605469 C 63.789062 37.59375 62.226562 39.898438 59.804688 41.460938 L 60.292969 42.164062 C 62.65625 40.621094 64.21875 38.414062 64.960938 35.542969 C 65.019531 35.679688 65.058594 35.835938 65.136719 36.03125 C 66.289062 39 67.773438 41.050781 69.609375 42.144531 L 70.117188 41.5 C 68.320312 40.386719 66.914062 38.472656 65.859375 35.796875 C 65.175781 33.960938 64.316406 32.691406 63.320312 31.988281 L 62.65625 32.417969 C 63.359375 32.945312 63.984375 33.667969 64.511719 34.605469 Z M 64.511719 34.605469 "/>
<path style=" stroke:none;fill-rule:nonzero;fill:rgb(100%,100%,100%);fill-opacity:1;" d="M 286.3125 41.058594 L 380.0625 41.058594 L 380.0625 1.683594 L 286.3125 1.683594 Z M 286.3125 41.058594 "/>
<path style="fill:none;stroke-width:1;stroke-linecap:round;stroke-linejoin:round;stroke:rgb(0%,0%,0%);stroke-opacity:1;stroke-miterlimit:10;" d="M 322.05 70.346875 L 397.05 70.346875 L 397.05 101.846875 L 322.05 101.846875 Z M 322.05 70.346875 " transform="matrix(1.25,0,0,1.25,-116.25,-86.25)"/>
<path style=" stroke:none;fill-rule:nonzero;fill:rgb(100%,100%,100%);fill-opacity:1;" d="M 277.769531 49.445312 L 371.519531 49.445312 L 371.519531 10.070312 L 277.769531 10.070312 Z M 277.769531 49.445312 "/>
<path style="fill:none;stroke-width:1;stroke-linecap:round;stroke-linejoin:round;stroke:rgb(0%,0%,0%);stroke-opacity:1;stroke-miterlimit:10;" d="M 315.215625 77.05625 L 390.215625 77.05625 L 390.215625 108.55625 L 315.215625 108.55625 Z M 315.215625 77.05625 " transform="matrix(1.25,0,0,1.25,-116.25,-86.25)"/>
<path style=" stroke:none;fill-rule:nonzero;fill:rgb(100%,100%,100%);fill-opacity:1;" d="M 269.019531 56.945312 L 362.769531 56.945312 L 362.769531 17.570312 L 269.019531 17.570312 Z M 269.019531 56.945312 "/>
<path style="fill:none;stroke-width:1;stroke-linecap:round;stroke-linejoin:round;stroke:rgb(0%,0%,0%);stroke-opacity:1;stroke-miterlimit:10;" d="M 308.215625 83.05625 L 383.215625 83.05625 L 383.215625 114.55625 L 308.215625 114.55625 Z M 308.215625 83.05625 " transform="matrix(1.25,0,0,1.25,-116.25,-86.25)"/>
<path style=" stroke:none;fill-rule:nonzero;fill:rgb(0%,0%,0%);fill-opacity:1;" d="M 300.5625 33.210938 L 300.5625 42.019531 L 301.34375 42.019531 L 301.34375 33.210938 Z M 302.925781 32.664062 L 302.925781 42.78125 L 303.726562 42.78125 L 303.726562 32.664062 Z M 298.335938 32.703125 L 298.335938 37.644531 C 298.316406 39.773438 297.867188 41.316406 296.96875 42.273438 L 297.574219 42.820312 C 298.570312 41.726562 299.078125 40.007812 299.117188 37.644531 L 299.117188 32.703125 Z M 295.210938 32.546875 L 294.664062 33.09375 C 295.464844 33.699219 296.109375 34.285156 296.597656 34.851562 L 297.144531 34.285156 C 296.617188 33.699219 295.972656 33.132812 295.210938 32.546875 Z M 293.902344 35.886719 L 293.902344 36.648438 L 295.5625 36.648438 L 295.5625 41.023438 C 295.5625 41.21875 295.464844 41.394531 295.308594 41.53125 L 295.621094 42.253906 C 296.304688 41.765625 296.929688 41.199219 297.515625 40.574219 L 297.300781 39.734375 C 296.96875 40.085938 296.636719 40.417969 296.324219 40.710938 L 296.324219 35.886719 Z M 293.902344 35.886719 "/>
<path style=" stroke:none;fill-rule:nonzero;fill:rgb(0%,0%,0%);fill-opacity:1;" d="M 308.707031 40.476562 C 307.691406 40.90625 306.480469 41.238281 305.113281 41.492188 L 305.210938 42.3125 C 306.519531 42.039062 307.691406 41.6875 308.707031 41.277344 Z M 307.007812 32.46875 C 306.597656 33.796875 306.128906 34.949219 305.5625 35.984375 C 305.464844 36.121094 305.347656 36.238281 305.210938 36.296875 L 305.425781 37.039062 C 306.011719 36.941406 306.578125 36.824219 307.144531 36.707031 C 306.597656 37.761719 306.109375 38.503906 305.71875 38.953125 C 305.621094 39.050781 305.484375 39.128906 305.347656 39.207031 L 305.5625 39.949219 C 306.597656 39.792969 307.671875 39.519531 308.804688 39.089844 L 308.804688 38.347656 C 308.042969 38.640625 307.28125 38.855469 306.539062 39.011719 C 307.144531 38.210938 307.925781 36.882812 308.882812 35.007812 L 308.140625 34.714844 C 307.925781 35.164062 307.730469 35.574219 307.515625 35.984375 C 307.066406 36.0625 306.617188 36.140625 306.167969 36.21875 C 306.714844 35.359375 307.242188 34.207031 307.789062 32.761719 Z M 310.074219 39.226562 C 309.742188 40.164062 309.273438 41.0625 308.648438 41.941406 L 309.351562 42.332031 C 309.878906 41.570312 310.367188 40.632812 310.777344 39.519531 Z M 314.292969 39.226562 L 313.570312 39.460938 C 314.019531 40.28125 314.429688 41.238281 314.800781 42.332031 L 315.484375 42.019531 C 315.152344 41.023438 314.742188 40.105469 314.292969 39.226562 Z M 311.773438 42.644531 C 312.417969 42.644531 312.75 42.351562 312.75 41.746094 L 312.75 38.582031 L 315.132812 38.582031 L 315.132812 37.859375 L 312.75 37.859375 L 312.75 35.671875 L 311.246094 35.671875 C 311.363281 35.300781 311.5 34.871094 311.636719 34.460938 L 315.132812 34.460938 L 315.132812 33.699219 L 311.871094 33.699219 C 311.96875 33.328125 312.066406 32.957031 312.164062 32.566406 L 311.382812 32.429688 C 311.265625 32.859375 311.167969 33.289062 311.050781 33.699219 L 308.550781 33.699219 L 308.550781 34.460938 L 310.835938 34.460938 C 310.699219 34.871094 310.5625 35.28125 310.425781 35.671875 L 308.960938 35.671875 L 308.960938 36.414062 L 310.132812 36.414062 C 309.898438 36.941406 309.644531 37.449219 309.410156 37.878906 L 309.585938 38.582031 L 311.96875 38.582031 L 311.96875 41.511719 C 311.96875 41.804688 311.8125 41.941406 311.539062 41.941406 L 310.464844 41.902344 L 310.660156 42.644531 Z M 310.953125 36.414062 L 311.96875 36.414062 L 311.96875 37.859375 L 310.308594 37.859375 C 310.523438 37.410156 310.738281 36.921875 310.953125 36.414062 Z M 310.953125 36.414062 "/>
<path style=" stroke:none;fill-rule:nonzero;fill:rgb(0%,0%,0%);fill-opacity:1;" d="M 318.042969 32.46875 L 318.042969 34.597656 L 316.675781 34.597656 L 316.675781 35.378906 L 318.042969 35.378906 C 317.691406 36.785156 317.125 38.054688 316.304688 39.167969 L 316.65625 40.046875 C 317.222656 39.167969 317.691406 38.191406 318.042969 37.136719 L 318.042969 42.742188 L 318.84375 42.742188 L 318.84375 37.097656 C 319.175781 37.527344 319.566406 38.09375 320.035156 38.796875 L 320.503906 38.113281 C 319.9375 37.429688 319.390625 36.804688 318.84375 36.238281 L 318.84375 35.378906 L 320.152344 35.378906 L 320.152344 34.597656 L 318.84375 34.597656 L 318.84375 32.46875 Z M 321.363281 37.546875 C 321.050781 38.953125 320.542969 40.203125 319.839844 41.355469 L 320.542969 41.804688 C 321.207031 40.652344 321.753906 39.304688 322.105469 37.722656 Z M 325.425781 37.507812 L 324.703125 37.742188 C 325.132812 38.953125 325.542969 40.339844 325.914062 41.902344 L 326.65625 41.570312 C 326.304688 40.125 325.914062 38.777344 325.425781 37.507812 Z M 322.90625 42.625 C 323.570312 42.625 323.902344 42.292969 323.902344 41.628906 L 323.902344 36.628906 L 326.65625 36.628906 L 326.65625 35.847656 L 320.347656 35.847656 L 320.347656 36.628906 L 323.101562 36.628906 L 323.101562 41.433594 C 323.101562 41.746094 322.945312 41.921875 322.632812 41.921875 C 322.300781 41.921875 321.96875 41.902344 321.617188 41.882812 L 321.773438 42.625 Z M 320.953125 33.113281 L 320.953125 33.875 L 326.070312 33.875 L 326.070312 33.113281 Z M 320.953125 33.113281 "/>
<path style=" stroke:none;fill-rule:nonzero;fill:rgb(0%,0%,0%);fill-opacity:1;" d="M 335.40625 38.875 C 335.074219 39.949219 334.683594 40.847656 334.234375 41.609375 L 328.042969 41.609375 L 328.042969 42.371094 L 337.535156 42.371094 L 337.535156 41.609375 L 335.113281 41.609375 C 335.542969 40.867188 335.894531 40.027344 336.1875 39.089844 Z M 330.015625 39.011719 L 329.292969 39.246094 C 329.644531 39.910156 329.9375 40.59375 330.171875 41.316406 L 330.894531 41.121094 C 330.640625 40.339844 330.347656 39.617188 330.015625 39.011719 Z M 332.632812 38.796875 L 331.871094 39.03125 C 332.164062 39.734375 332.417969 40.457031 332.59375 41.21875 L 333.316406 41.023438 C 333.121094 40.183594 332.886719 39.441406 332.632812 38.796875 Z M 329.859375 37.722656 L 329.859375 38.425781 L 335.699219 38.425781 L 335.699219 37.722656 Z M 329.410156 34.128906 L 330.269531 34.128906 C 330.464844 34.558594 330.640625 35.027344 330.777344 35.496094 L 331.519531 35.222656 C 331.402344 34.890625 331.246094 34.519531 331.070312 34.128906 L 332.691406 34.128906 L 332.691406 33.40625 L 329.722656 33.40625 C 329.839844 33.132812 329.9375 32.859375 330.015625 32.566406 L 329.234375 32.410156 C 328.921875 33.445312 328.414062 34.382812 327.710938 35.242188 L 328.414062 35.671875 C 328.785156 35.203125 329.117188 34.695312 329.410156 34.128906 Z M 334.136719 34.128906 L 335.113281 34.128906 C 335.367188 34.597656 335.601562 35.085938 335.796875 35.59375 L 336.539062 35.320312 C 336.382812 34.949219 336.207031 34.558594 335.953125 34.128906 L 337.75 34.128906 L 337.75 33.40625 L 334.449219 33.40625 C 334.546875 33.132812 334.644531 32.859375 334.722656 32.566406 L 333.941406 32.410156 C 333.707031 33.289062 333.335938 34.070312 332.808594 34.792969 L 333.492188 35.222656 C 333.726562 34.890625 333.941406 34.519531 334.136719 34.128906 Z M 332.515625 35.242188 C 331.226562 36.199219 329.605469 37 327.652344 37.644531 L 328.042969 38.347656 C 329.996094 37.664062 331.578125 36.84375 332.769531 35.90625 C 334.078125 36.921875 335.640625 37.722656 337.476562 38.347656 L 337.886719 37.664062 C 336.050781 37.078125 334.429688 36.257812 333.023438 35.242188 Z M 332.515625 35.242188 "/>
<path style=" stroke:none;fill-rule:nonzero;fill:rgb(69.803922%,85.098039%,100%);fill-opacity:1;" d="M 138.703125 56.5 L 232.453125 56.5 L 232.453125 17.125 L 138.703125 17.125 Z M 138.703125 56.5 "/>
<path style="fill:none;stroke-width:1;stroke-linecap:round;stroke-linejoin:round;stroke:rgb(0%,0%,0%);stroke-opacity:1;stroke-miterlimit:10;" d="M 203.9625 82.7 L 278.9625 82.7 L 278.9625 114.2 L 203.9625 114.2 Z M 203.9625 82.7 " transform="matrix(1.25,0,0,1.25,-116.25,-86.25)"/>
<path style=" stroke:none;fill-rule:nonzero;fill:rgb(0%,0%,0%);fill-opacity:1;" d="M 169.875 34.117188 L 173.488281 34.117188 L 173.488281 33.335938 L 170.148438 33.335938 C 170.246094 32.925781 170.363281 32.515625 170.441406 32.066406 L 169.621094 31.910156 C 169.328125 33.53125 168.800781 34.800781 168 35.757812 L 168.507812 36.402344 C 169.054688 35.796875 169.503906 35.015625 169.875 34.117188 Z M 171.046875 34.878906 L 170.402344 35.289062 C 170.96875 36.050781 171.417969 36.734375 171.769531 37.359375 L 172.433594 36.890625 C 172.121094 36.324219 171.652344 35.660156 171.046875 34.878906 Z M 166.691406 31.96875 L 166.691406 37.515625 L 167.53125 37.515625 L 167.53125 31.96875 Z M 164.367188 32.515625 L 164.367188 37.105469 L 165.167969 37.105469 L 165.167969 32.515625 Z M 172.570312 38.082031 L 164.855469 38.082031 L 164.855469 41.207031 L 163.585938 41.207031 L 163.585938 41.949219 L 173.78125 41.949219 L 173.78125 41.207031 L 172.570312 41.207031 Z M 165.636719 41.207031 L 165.636719 38.824219 L 167.121094 38.824219 L 167.121094 41.207031 Z M 167.902344 41.207031 L 167.902344 38.824219 L 169.484375 38.824219 L 169.484375 41.207031 Z M 170.246094 41.207031 L 170.246094 38.824219 L 171.789062 38.824219 L 171.789062 41.207031 Z M 170.246094 41.207031 "/>
<path style=" stroke:none;fill-rule:nonzero;fill:rgb(0%,0%,0%);fill-opacity:1;" d="M 177.023438 31.988281 L 177.023438 33.882812 L 175.109375 33.882812 L 175.109375 34.566406 L 177.179688 34.566406 L 177.179688 36.949219 L 177.921875 36.949219 L 177.921875 34.566406 L 180.070312 34.566406 L 180.070312 33.882812 L 177.765625 33.882812 L 177.765625 33.179688 L 179.699219 33.179688 L 179.699219 32.554688 L 177.765625 32.554688 L 177.765625 31.988281 Z M 183.488281 37.242188 L 176.515625 37.242188 L 176.515625 42.339844 L 177.296875 42.339844 L 177.296875 41.871094 L 182.707031 41.871094 L 182.707031 42.339844 L 183.488281 42.339844 Z M 177.296875 41.246094 L 177.296875 40.523438 L 182.707031 40.523438 L 182.707031 41.246094 Z M 177.296875 39.9375 L 177.296875 39.175781 L 182.707031 39.175781 L 182.707031 39.9375 Z M 177.296875 38.609375 L 177.296875 37.867188 L 182.707031 37.867188 L 182.707031 38.609375 Z M 179.113281 34.917969 L 178.488281 35.132812 C 178.78125 35.601562 179.035156 36.167969 179.289062 36.773438 L 179.875 36.5 C 179.660156 35.953125 179.40625 35.425781 179.113281 34.917969 Z M 180.734375 33.394531 C 180.929688 34.195312 181.320312 34.878906 181.925781 35.484375 C 181.4375 35.816406 180.851562 36.109375 180.167969 36.324219 L 180.519531 37.007812 C 181.261719 36.734375 181.925781 36.382812 182.492188 35.972656 C 183.058594 36.402344 183.761719 36.773438 184.601562 37.066406 L 184.972656 36.402344 C 184.210938 36.128906 183.566406 35.835938 183.078125 35.503906 C 183.683594 34.898438 184.132812 34.195312 184.40625 33.375 L 184.40625 32.691406 L 180.226562 32.691406 L 180.226562 33.394531 Z M 182.472656 35.054688 C 181.925781 34.546875 181.59375 34.019531 181.457031 33.394531 L 183.585938 33.394531 C 183.351562 34.019531 182.980469 34.566406 182.472656 35.054688 Z M 176.007812 34.917969 C 175.792969 35.582031 175.460938 36.1875 175.011719 36.734375 L 175.597656 37.105469 C 176.066406 36.539062 176.417969 35.835938 176.691406 35.054688 Z M 176.007812 34.917969 "/>
<path style=" stroke:none;fill-rule:nonzero;fill:rgb(0%,0%,0%);fill-opacity:1;" d="M 195.949219 34.273438 L 193.78125 34.273438 C 194.210938 33.726562 194.621094 33.042969 195.011719 32.242188 L 194.191406 31.929688 C 193.820312 32.769531 193.390625 33.550781 192.902344 34.273438 L 186.457031 34.273438 L 186.457031 36.792969 L 187.238281 36.792969 L 187.238281 35.054688 L 195.148438 35.054688 L 195.148438 36.792969 L 195.949219 36.792969 Z M 188.175781 36.011719 L 188.175781 36.734375 L 193.078125 36.734375 C 192.589844 37.007812 191.886719 37.339844 190.929688 37.75 L 190.929688 38.6875 L 186.378906 38.6875 L 186.378906 39.449219 L 190.929688 39.449219 L 190.929688 41.070312 C 190.929688 41.382812 190.792969 41.539062 190.519531 41.539062 C 190.03125 41.539062 189.582031 41.539062 189.171875 41.519531 L 189.367188 42.261719 L 190.792969 42.261719 C 191.4375 42.261719 191.75 41.96875 191.75 41.363281 L 191.75 39.449219 L 196.046875 39.449219 L 196.046875 38.6875 L 191.75 38.6875 L 191.75 38.121094 C 192.667969 37.671875 193.507812 37.203125 194.25 36.734375 L 194.25 36.011719 Z M 188.058594 32.105469 L 187.316406 32.457031 C 187.746094 32.984375 188.136719 33.550781 188.507812 34.214844 L 189.210938 33.863281 C 188.859375 33.21875 188.449219 32.632812 188.058594 32.105469 Z M 190.773438 31.890625 L 190.050781 32.242188 C 190.421875 32.789062 190.792969 33.394531 191.125 34.097656 L 191.847656 33.746094 C 191.515625 33.0625 191.144531 32.4375 190.773438 31.890625 Z M 190.773438 31.890625 "/>
<path style=" stroke:none;fill-rule:nonzero;fill:rgb(0%,0%,0%);fill-opacity:1;" d="M 204.035156 37.28125 C 202.355469 38.316406 200.34375 39.175781 198 39.898438 L 198.332031 40.640625 C 200.695312 39.878906 202.648438 39 204.25 38.003906 Z M 199.5625 34.585938 L 198.996094 35.132812 C 199.992188 35.875 200.792969 36.578125 201.378906 37.261719 L 201.925781 36.695312 C 201.28125 35.992188 200.5 35.289062 199.5625 34.585938 Z M 202.863281 42.242188 C 203.585938 42.222656 204.191406 42.203125 204.660156 42.203125 C 205.285156 42.203125 205.675781 42.007812 205.890625 41.597656 C 206.125 41.207031 206.261719 40.445312 206.300781 39.332031 C 206.339844 38.609375 206.398438 36.402344 206.4375 32.691406 L 198.273438 32.691406 L 198.273438 33.472656 L 205.617188 33.472656 C 205.597656 36.226562 205.597656 37.984375 205.578125 38.785156 C 205.539062 39.957031 205.441406 40.71875 205.265625 41.03125 C 205.089844 41.324219 204.835938 41.5 204.503906 41.5 C 203.878906 41.5 203.253906 41.480469 202.648438 41.460938 Z M 202.863281 42.242188 "/>
<path style=" stroke:none;fill-rule:nonzero;fill:rgb(40%,74.901961%,100%);fill-opacity:1;" d="M 138.703125 115 L 232.453125 115 L 232.453125 75.625 L 138.703125 75.625 Z M 138.703125 115 "/>
<path style="fill:none;stroke-width:1;stroke-linecap:round;stroke-linejoin:round;stroke:rgb(0%,0%,0%);stroke-opacity:1;stroke-miterlimit:10;" d="M 203.9625 129.5 L 278.9625 129.5 L 278.9625 161 L 203.9625 161 Z M 203.9625 129.5 " transform="matrix(1.25,0,0,1.25,-116.25,-86.25)"/>
<path style=" stroke:none;fill-rule:nonzero;fill:rgb(0%,0%,0%);fill-opacity:1;" d="M 178.253906 91.425781 L 178.253906 92.148438 L 179.894531 92.148438 L 179.894531 92.988281 L 180.65625 92.988281 L 180.65625 92.148438 L 182.453125 92.148438 L 182.453125 92.988281 L 183.234375 92.988281 L 183.234375 92.148438 L 184.972656 92.148438 L 184.972656 91.425781 L 183.234375 91.425781 L 183.234375 90.527344 L 182.453125 90.527344 L 182.453125 91.425781 L 180.65625 91.425781 L 180.65625 90.527344 L 179.894531 90.527344 L 179.894531 91.425781 Z M 181.417969 98.496094 C 182.0625 99.433594 183.117188 100.214844 184.582031 100.839844 L 185.109375 100.195312 C 183.78125 99.726562 182.804688 99.121094 182.140625 98.339844 L 184.992188 98.339844 L 184.992188 97.597656 L 181.75 97.597656 C 181.828125 97.34375 181.886719 97.070312 181.925781 96.757812 L 184.230469 96.757812 L 184.230469 93.339844 L 178.859375 93.339844 L 178.859375 96.757812 L 181.222656 96.757812 C 181.164062 97.050781 181.085938 97.34375 181.007812 97.597656 L 178.039062 97.597656 L 178.039062 98.339844 L 180.65625 98.339844 C 180.578125 98.515625 180.460938 98.652344 180.34375 98.789062 C 179.855469 99.375 179.054688 99.804688 177.921875 100.117188 L 178.214844 100.78125 C 179.523438 100.410156 180.421875 99.921875 180.929688 99.257812 C 181.105469 99.042969 181.28125 98.769531 181.417969 98.496094 Z M 177.160156 95.058594 C 177.453125 95.507812 177.824219 96.113281 178.234375 96.855469 L 178.664062 96.210938 C 178.136719 95.449219 177.648438 94.785156 177.160156 94.199219 L 177.160156 93.457031 L 178.351562 93.457031 L 178.351562 92.714844 L 177.160156 92.714844 L 177.160156 90.546875 L 176.398438 90.546875 L 176.398438 92.714844 L 175.089844 92.714844 L 175.089844 93.457031 L 176.398438 93.457031 L 176.398438 93.515625 C 176.066406 94.902344 175.5 96.113281 174.71875 97.1875 L 175.070312 98.066406 C 175.617188 97.207031 176.046875 96.230469 176.398438 95.175781 L 176.398438 100.78125 L 177.160156 100.78125 Z M 183.507812 96.113281 L 179.582031 96.113281 L 179.582031 95.351562 L 183.507812 95.351562 Z M 179.582031 94.746094 L 179.582031 94.003906 L 183.507812 94.003906 L 183.507812 94.746094 Z M 179.582031 94.746094 "/>
<path style=" stroke:none;fill-rule:nonzero;fill:rgb(0%,0%,0%);fill-opacity:1;" d="M 186.632812 90.996094 L 186.632812 91.71875 L 187.765625 91.71875 L 187.765625 93.417969 L 186.339844 93.417969 L 186.339844 94.160156 L 187.726562 94.160156 C 187.609375 95.078125 187.238281 95.761719 186.613281 96.230469 L 187.21875 96.757812 C 187.960938 96.171875 188.390625 95.3125 188.507812 94.160156 L 189.992188 94.160156 L 189.992188 96.621094 L 190.773438 96.621094 L 190.773438 94.160156 L 192.160156 94.160156 L 192.160156 93.417969 L 190.773438 93.417969 L 190.773438 91.71875 L 191.90625 91.71875 L 191.90625 90.996094 Z M 188.546875 91.71875 L 189.992188 91.71875 L 189.992188 93.417969 L 188.546875 93.417969 Z M 192.824219 91.269531 L 192.824219 95.136719 L 193.605469 95.136719 L 193.605469 91.269531 Z M 186.886719 97.734375 L 186.886719 98.476562 L 190.851562 98.476562 L 190.851562 99.785156 L 186.261719 99.785156 L 186.261719 100.527344 L 196.144531 100.527344 L 196.144531 99.785156 L 191.652344 99.785156 L 191.652344 98.476562 L 195.519531 98.476562 L 195.519531 97.734375 L 191.652344 97.734375 L 191.652344 96.757812 L 190.851562 96.757812 L 190.851562 97.734375 Z M 194.738281 96.738281 C 195.324219 96.738281 195.636719 96.386719 195.636719 95.703125 L 195.636719 90.644531 L 194.855469 90.644531 L 194.855469 95.507812 C 194.855469 95.839844 194.71875 96.015625 194.464844 96.015625 C 194.015625 96.015625 193.546875 95.996094 193.058594 95.957031 L 193.234375 96.738281 Z M 194.738281 96.738281 "/>
<path style=" stroke:none;fill-rule:nonzero;fill:rgb(100%,100%,100%);fill-opacity:1;" d="M 269.019531 115 L 362.769531 115 L 362.769531 75.625 L 269.019531 75.625 Z M 269.019531 115 "/>
<path style="fill:none;stroke-width:1;stroke-linecap:round;stroke-linejoin:round;stroke:rgb(0%,0%,0%);stroke-opacity:1;stroke-miterlimit:10;" d="M 308.215625 129.5 L 383.215625 129.5 L 383.215625 161 L 308.215625 161 Z M 308.215625 129.5 " transform="matrix(1.25,0,0,1.25,-116.25,-86.25)"/>
<path style=" stroke:none;fill-rule:nonzero;fill:rgb(0%,0%,0%);fill-opacity:1;" d="M 307.222656 93.632812 L 307.222656 95.292969 L 306.109375 95.292969 C 306.382812 94.570312 306.65625 93.75 306.890625 92.832031 L 309.058594 92.832031 L 309.058594 92.070312 L 307.085938 92.070312 C 307.183594 91.621094 307.28125 91.132812 307.398438 90.625 L 306.65625 90.46875 C 306.539062 91.015625 306.441406 91.5625 306.324219 92.070312 L 305.210938 92.070312 L 305.210938 92.832031 L 306.148438 92.832031 C 305.894531 93.828125 305.621094 94.6875 305.289062 95.351562 L 305.464844 96.035156 L 307.222656 96.035156 L 307.222656 97.714844 C 306.558594 97.832031 305.875 97.949219 305.132812 98.027344 L 305.230469 98.828125 C 305.914062 98.710938 306.578125 98.613281 307.222656 98.476562 L 307.222656 100.820312 L 307.964844 100.820312 L 307.964844 98.320312 L 309.039062 98.046875 L 309.039062 97.285156 C 308.707031 97.363281 308.355469 97.460938 307.964844 97.558594 L 307.964844 96.035156 L 309 96.035156 L 309 95.292969 L 307.964844 95.292969 L 307.964844 93.632812 Z M 310.542969 93.046875 L 310.542969 93.710938 L 313.765625 93.710938 L 313.765625 93.046875 L 310.542969 93.046875 C 311.109375 92.5 311.65625 91.894531 312.183594 91.25 C 313.042969 92.34375 314 93.28125 315.054688 94.042969 L 315.484375 93.417969 C 314.46875 92.695312 313.472656 91.738281 312.476562 90.527344 L 311.910156 90.527344 C 310.992188 91.640625 309.957031 92.636719 308.804688 93.476562 L 309.253906 94.160156 C 309.683594 93.808594 310.113281 93.4375 310.542969 93.046875 Z M 311.324219 100.742188 C 311.871094 100.742188 312.164062 100.449219 312.164062 99.863281 L 312.164062 94.609375 L 309.507812 94.609375 L 309.507812 100.820312 L 310.210938 100.820312 L 310.210938 98.710938 L 311.480469 98.710938 L 311.480469 99.726562 C 311.480469 99.960938 311.34375 100.097656 311.109375 100.097656 L 310.601562 100.078125 L 310.777344 100.742188 Z M 310.210938 98.085938 L 310.210938 97.011719 L 311.480469 97.011719 L 311.480469 98.085938 Z M 310.210938 96.386719 L 310.210938 95.273438 L 311.480469 95.273438 L 311.480469 96.386719 Z M 312.828125 94.921875 L 312.828125 98.964844 L 313.472656 98.964844 L 313.472656 94.921875 Z M 314.058594 100.761719 C 314.605469 100.761719 314.878906 100.429688 314.878906 99.785156 L 314.878906 94.414062 L 314.175781 94.414062 L 314.175781 99.609375 C 314.175781 99.921875 314.058594 100.097656 313.804688 100.097656 C 313.53125 100.097656 313.238281 100.078125 312.945312 100.039062 L 313.101562 100.761719 Z M 314.058594 100.761719 "/>
<path style=" stroke:none;fill-rule:nonzero;fill:rgb(0%,0%,0%);fill-opacity:1;" d="M 324.566406 94.414062 L 321.929688 94.414062 L 321.929688 90.488281 L 321.109375 90.488281 L 321.109375 94.414062 L 318.472656 94.414062 L 318.472656 91.347656 L 317.652344 91.347656 L 317.652344 95.195312 L 321.109375 95.195312 L 321.109375 99.335938 L 317.925781 99.335938 L 317.925781 96.25 L 317.105469 96.25 L 317.105469 100.742188 L 317.925781 100.742188 L 317.925781 100.097656 L 325.113281 100.097656 L 325.113281 100.742188 L 325.933594 100.742188 L 325.933594 96.25 L 325.113281 96.25 L 325.113281 99.335938 L 321.929688 99.335938 L 321.929688 95.195312 L 325.386719 95.195312 L 325.386719 91.347656 L 324.566406 91.347656 Z M 324.566406 94.414062 "/>
<path style="fill:none;stroke-width:1;stroke-linecap:round;stroke-linejoin:miter;stroke:rgb(0%,0%,0%);stroke-opacity:1;stroke-miterlimit:10;" d="M 308.215625 98.675 L 284.8625 98.596875 " transform="matrix(1.25,0,0,1.25,-116.25,-86.25)"/>
<path style="fill:none;stroke-width:1;stroke-linecap:butt;stroke-linejoin:miter;stroke:rgb(0%,0%,0%);stroke-opacity:1;stroke-miterlimit:10;" d="M 280.8625 98.58125 L 284.8625 98.596875 M 284.85625 100.096875 L 280.8625 98.58125 L 284.86875 97.096875 " transform="matrix(1.25,0,0,1.25,-116.25,-86.25)"/>
<path style="fill:none;stroke-width:1;stroke-linecap:round;stroke-linejoin:miter;stroke:rgb(0%,0%,0%);stroke-opacity:1;stroke-miterlimit:10;" d="M 241.4625 114.2 L 241.4625 123.6 " transform="matrix(1.25,0,0,1.25,-116.25,-86.25)"/>
<path style="fill:none;stroke-width:1;stroke-linecap:butt;stroke-linejoin:miter;stroke:rgb(0%,0%,0%);stroke-opacity:1;stroke-miterlimit:10;" d="M 241.4625 127.6 L 241.4625 123.6 M 242.9625 123.6 L 241.4625 127.6 L 239.9625 123.6 " transform="matrix(1.25,0,0,1.25,-116.25,-86.25)"/>
<path style="fill:none;stroke-width:1;stroke-linecap:round;stroke-linejoin:miter;stroke:rgb(0%,0%,0%);stroke-opacity:1;stroke-miterlimit:10;" d="M 168.66875 145.25 L 198.0625 145.25 " transform="matrix(1.25,0,0,1.25,-116.25,-86.25)"/>
<path style="fill:none;stroke-width:1;stroke-linecap:butt;stroke-linejoin:miter;stroke:rgb(0%,0%,0%);stroke-opacity:1;stroke-miterlimit:10;" d="M 202.0625 145.25 L 198.0625 145.25 M 198.0625 143.75 L 202.0625 145.25 L 198.0625 146.75 " transform="matrix(1.25,0,0,1.25,-116.25,-86.25)"/>
<path style="fill:none;stroke-width:1;stroke-linecap:round;stroke-linejoin:miter;stroke:rgb(0%,0%,0%);stroke-opacity:1;stroke-miterlimit:10;" d="M 278.9625 145.25 L 302.315625 145.25 " transform="matrix(1.25,0,0,1.25,-116.25,-86.25)"/>
<path style="fill:none;stroke-width:1;stroke-linecap:butt;stroke-linejoin:miter;stroke:rgb(0%,0%,0%);stroke-opacity:1;stroke-miterlimit:10;" d="M 306.315625 145.25 L 302.315625 145.25 M 302.315625 143.75 L 306.315625 145.25 L 302.315625 146.75 " transform="matrix(1.25,0,0,1.25,-116.25,-86.25)"/>
</g>
</svg>
